<?xml version="1.0" encoding="UTF-8" standalone="no"?>
<svg
   xmlns:dc="http://purl.org/dc/elements/1.1/"
   xmlns:cc="http://creativecommons.org/ns#"
   xmlns:rdf="http://www.w3.org/1999/02/22-rdf-syntax-ns#"
   xmlns:svg="http://www.w3.org/2000/svg"
   xmlns="http://www.w3.org/2000/svg"
   viewBox="0 0 997.41272 390.42029"
   height="390.42029"
   width="997.41272"
   xml:space="preserve"
   version="1.1"
   id="svg2"><metadata
     id="metadata8"><rdf:RDF><cc:Work
         rdf:about=""><dc:format>image/svg+xml</dc:format><dc:type
           rdf:resource="http://purl.org/dc/dcmitype/StillImage" /><dc:title></dc:title></cc:Work></rdf:RDF></metadata><defs
     id="defs6" /><g
     transform="matrix(1.25,0,0,-1.25,10.000751,190.42153)"
     id="g10"><g
       id="g12"><path
         id="path14"
         style="fill:#236ac4;fill-opacity:1;fill-rule:nonzero;stroke:none"
         d="m 57.758,49.672 c -0.07,0.043 -0.164,0.149 -0.215,0.227 -0.086,0.144 -0.09,0.394 -0.113,6.191 l -0.024,6.043 -1.625,0.027 c -0.894,0.008 -1.656,0.043 -1.695,0.067 -0.199,0.113 -0.301,0.269 -0.414,0.621 -0.106,0.324 -0.129,0.516 -0.164,1.242 -0.067,1.496 -0.274,2.953 -0.621,4.363 -0.184,0.754 -0.539,1.973 -0.614,2.11 -0.027,0.043 -0.082,-0.02 -0.183,-0.199 -0.442,-0.786 -1.289,-0.848 -1.77,-0.133 -0.25,0.375 -0.312,0.633 -0.316,1.269 -0.004,0.492 0.016,0.617 0.113,0.899 0.067,0.179 0.192,0.41 0.281,0.515 0.161,0.188 0.465,0.379 0.602,0.379 0.145,0 0.117,0.106 -0.168,0.668 -1.301,2.606 -3.07,5.145 -5.414,7.785 -0.746,0.84 -2.73,2.825 -3.609,3.606 -2.004,1.777 -4.118,3.418 -6.047,4.691 -1.016,0.668 -1.055,0.688 -1.145,0.559 -0.039,-0.059 -0.144,-0.137 -0.234,-0.18 -0.149,-0.066 -0.617,-0.074 -4.852,-0.074 -5.129,0 -4.879,-0.016 -5.129,0.281 -0.078,0.094 -0.16,0.149 -0.199,0.129 C 24.047,90.703 20.957,88.75 20.402,88.364 18.375,86.942 16.598,85.449 14.812,83.66 12.715,81.563 10.969,79.321 9.449,76.778 9.023,76.063 7.793,73.66 7.719,73.399 l -0.031,-0.11 0.226,0.121 c 0.258,0.133 0.598,0.161 0.848,0.051 0.218,-0.086 0.535,-0.465 0.66,-0.789 0.144,-0.359 0.16,-1.375 0.027,-1.754 -0.211,-0.601 -0.586,-0.929 -1.054,-0.929 -0.446,0 -0.731,0.207 -0.973,0.699 -0.137,0.269 -0.168,0.418 -0.199,0.933 L 7.191,72.074 7.109,71.922 C 7.066,71.84 6.867,71.293 6.672,70.707 5.793,68.082 5.27,65.324 5.246,63.211 5.242,62.879 5.258,62.492 5.277,62.336 5.312,62.11 5.305,62.043 5.219,61.91 5.027,61.606 5.074,61.614 3.109,61.586 l -1.793,-0.023 0,-2.532 1.641,-0.011 1.645,-0.016 1.343,0.438 c 0.739,0.234 1.45,0.461 1.582,0.492 l 0.239,0.062 0.046,3.524 0.247,0.523 c 0.484,1.043 0.5,1.074 0.671,1.18 0.161,0.098 0.239,0.105 1.708,0.129 l 1.542,0.023 0.172,-0.164 c 0.149,-0.137 0.2,-0.25 0.36,-0.785 l 0.191,-0.617 1.5,0 -0.008,0.5 c -0.015,0.863 0.141,2.781 0.336,4.109 0.957,6.582 3.578,13.067 7.653,18.914 0.464,0.664 1.273,1.594 1.492,1.715 0.129,0.074 0.465,0.082 3.273,0.098 1.719,0.008 3.242,0 3.379,-0.016 0.274,-0.031 0.516,-0.191 0.59,-0.39 0.078,-0.204 0.445,-4.235 0.687,-7.567 0.145,-1.922 0.333,-5.141 0.415,-7.043 0.058,-1.379 0.082,-6.066 0.042,-7.719 l -0.027,-0.929 0.36,-0.024 c 0.199,-0.015 0.406,-0.058 0.468,-0.097 0.145,-0.094 0.258,-0.352 0.442,-0.981 0.086,-0.289 0.172,-0.562 0.199,-0.605 0.039,-0.082 0.418,-0.086 7.184,-0.075 l 7.14,0.012 0.25,0.547 c 0.324,0.703 0.375,0.742 1.047,0.785 0.273,0.016 0.969,0.035 1.551,0.039 1.023,0.004 1.062,0.004 1.207,-0.101 0.199,-0.145 0.215,-0.168 0.512,-1.16 l 0.257,-0.864 0,-1.789 c 0,-0.976 0.012,-1.785 0.028,-1.785 0.011,0 0.082,0.051 0.156,0.102 0.156,0.117 0.176,0.117 1.699,0.101 l 1.188,-0.008 0.183,-0.183 c 0.164,-0.164 0.188,-0.211 0.188,-0.418 0,-0.149 -0.035,-0.289 -0.098,-0.391 -0.172,-0.289 -0.285,-0.301 -1.734,-0.289 -1.27,0.016 -1.301,0.02 -1.453,0.125 l -0.157,0.113 0,-3.027 c 0,-3.375 0.012,-3.234 -0.328,-3.465 -0.316,-0.211 -0.746,-0.082 -0.926,0.278 -0.078,0.152 -0.082,0.507 -0.082,5.324 l 0,5.156 -0.125,0.434 c -0.07,0.238 -0.144,0.453 -0.168,0.476 -0.046,0.067 -1.668,0.039 -1.734,-0.023 -0.023,-0.024 -0.125,-0.227 -0.227,-0.457 l -0.183,-0.414 0,-5.332 c 0,-5.075 -0.004,-5.344 -0.09,-5.5 -0.234,-0.442 -0.906,-0.438 -1.133,0.004 -0.07,0.132 -0.078,0.484 -0.07,3.269 0.004,1.883 -0.012,3.16 -0.039,3.207 -0.043,0.078 -0.391,0.082 -6.988,0.063 L 33.613,58.504 33.59,55.278 c -0.024,-3.024 -0.031,-3.235 -0.113,-3.36 -0.094,-0.148 -0.34,-0.269 -0.536,-0.269 -0.195,0 -0.453,0.144 -0.55,0.304 -0.086,0.145 -0.09,0.348 -0.09,5.668 l -0.004,5.512 -0.141,0.481 c -0.078,0.261 -0.156,0.484 -0.168,0.5 -0.035,0.031 -1.656,0.003 -1.711,-0.032 -0.023,-0.011 -0.125,-0.203 -0.226,-0.422 l -0.184,-0.394 -0.015,-5.652 c -0.012,-5.301 -0.02,-5.665 -0.098,-5.813 -0.109,-0.195 -0.309,-0.297 -0.598,-0.297 -0.168,0 -0.273,0.031 -0.367,0.106 -0.277,0.214 -0.266,-0.028 -0.266,5.629 l 0,5.207 -7.82,-0.012 -7.824,-0.016 -0.024,-5.301 c -0.023,-5.011 -0.031,-5.316 -0.109,-5.441 -0.277,-0.422 -0.883,-0.402 -1.121,0.031 -0.078,0.145 -0.086,0.52 -0.109,5.867 l -0.024,5.707 -0.117,0.372 c -0.09,0.281 -0.141,0.378 -0.215,0.394 -0.055,0.016 -0.449,0.004 -0.883,-0.012 L 9.496,64 9.082,63.086 l 0,-4.629 C 9.078,53.946 9.078,53.817 8.984,53.668 8.746,53.278 8.125,53.274 7.887,53.664 7.793,53.817 7.789,53.899 7.789,56.196 7.789,57.5 7.77,58.582 7.75,58.59 7.727,58.61 7.516,58.559 7.281,58.481 7.051,58.406 6.418,58.199 5.879,58.024 L 4.898,57.707 3.176,57.711 C 2.23,57.711 1.418,57.707 1.375,57.688 1.301,57.66 1.293,57.539 1.293,56.418 1.293,55.449 1.277,55.145 1.223,55.016 1.074,54.664 0.539,54.535 0.242,54.781 0.164,54.852 0.074,54.949 0.047,55 0.012,55.063 -0.004,56.313 0,58.77 c 0.004,4.011 -0.008,3.847 0.273,4.039 0.125,0.082 0.27,0.094 1.879,0.109 l 1.743,0.028 0.035,0.718 c 0.113,2.379 0.73,5.352 1.66,7.977 1.242,3.5 3.183,6.957 5.601,9.969 1.633,2.035 3.903,4.296 6.012,5.996 1.527,1.226 2.699,2.054 4.539,3.191 0.746,0.469 1.477,0.93 1.621,1.024 l 0.266,0.175 0.027,3.868 c 0.028,4.218 0.008,3.871 0.324,5.121 0.645,2.531 1.825,4.574 3.27,5.66 0.324,0.238 0.418,0.344 0.547,0.594 0.133,0.265 0.183,0.308 0.418,0.425 l 0.262,0.125 0,0.301 c 0,0.301 -0.004,0.309 -0.137,0.336 -0.074,0.02 -0.207,0.109 -0.297,0.199 l -0.164,0.168 0,1.168 0.625,0.977 c 0.68,1.062 0.805,1.191 1.141,1.191 0.355,0 0.445,-0.094 1.05,-1.156 l 0.559,-0.981 0.004,-0.543 c 0.004,-0.636 -0.051,-0.789 -0.344,-0.957 -0.211,-0.121 -0.266,-0.261 -0.211,-0.535 0.027,-0.156 0.063,-0.191 0.293,-0.297 0.211,-0.101 0.281,-0.164 0.352,-0.324 0.05,-0.105 0.09,-0.254 0.09,-0.328 0,-0.102 0.05,-0.16 0.253,-0.293 1.579,-1.008 2.868,-2.84 3.442,-4.891 0.394,-1.414 0.383,-1.238 0.414,-5.91 l 0.023,-4.16 1.004,-0.668 c 4.371,-2.918 8.395,-6.566 11.442,-10.371 2.597,-3.234 4.425,-6.504 5.57,-9.934 0.742,-2.238 1.113,-4.222 1.242,-6.671 l 0.031,-0.606 0.164,-0.031 c 0.09,-0.016 0.872,-0.027 1.735,-0.02 1.566,0.008 1.57,0.008 1.722,-0.101 0.305,-0.219 0.29,0.187 0.29,-6.836 0,-7.102 0.019,-6.637 -0.309,-6.832 -0.184,-0.113 -0.531,-0.117 -0.703,-0.016 l 0,0.004 z M 47.562,60.176 c 0.036,0.328 0.028,1.824 -0.011,2.039 l -0.024,0.137 -13.914,-0.024 -0.011,-1.172 c -0.008,-0.64 -0.004,-1.195 0.007,-1.234 0.02,-0.043 1.403,-0.055 6.973,-0.055 l 6.945,0 0.035,0.309 z m -18.617,4.25 c 0.168,0.367 0.36,0.73 0.426,0.801 0.141,0.148 0.215,0.168 0.824,0.199 0.246,0.02 0.457,0.035 0.461,0.039 0.059,0.066 0.117,2.234 0.117,4.336 0,3.695 -0.175,7.395 -0.601,12.809 -0.227,2.882 -0.43,5.082 -0.477,5.156 -0.019,0.031 -0.902,0.051 -2.722,0.051 l -2.692,0 -0.324,-0.36 c -0.594,-0.664 -1.926,-2.672 -2.93,-4.418 -3.281,-5.722 -5.336,-12.515 -5.48,-18.121 l -0.031,-1.133 6.468,-0.015 c 3.559,-0.012 6.512,-0.016 6.563,-0.016 0.07,0.004 0.16,0.156 0.398,0.672 z m -7.683,5.953 c -0.75,0.149 -1.446,0.832 -1.692,1.664 -0.093,0.328 -0.097,0.992 -0.004,1.336 0.18,0.684 0.618,1.231 1.211,1.524 0.356,0.175 0.371,0.179 0.914,0.179 0.532,0 0.567,-0.004 0.887,-0.164 1.055,-0.515 1.578,-1.871 1.172,-3.035 -0.375,-1.074 -1.422,-1.711 -2.488,-1.504 z m 0.883,1.449 c 0.687,0.528 0.464,1.805 -0.348,1.965 -0.211,0.043 -0.543,-0.086 -0.723,-0.289 -0.183,-0.211 -0.308,-0.637 -0.273,-0.918 0.051,-0.351 0.277,-0.687 0.582,-0.871 0.164,-0.09 0.57,-0.031 0.762,0.113 z m 12.074,23.621 c 0.004,2.067 0.004,3.836 -0.004,3.926 -0.008,0.09 -0.035,0.184 -0.067,0.203 -0.031,0.02 -2.082,0.039 -4.554,0.039 -4.125,0 -4.504,-0.007 -4.563,-0.078 -0.054,-0.066 -0.07,-0.707 -0.082,-3.621 -0.008,-1.945 0,-3.695 0.016,-3.887 l 0.031,-0.343 9.215,0 0.008,3.761 z M 26.82,93.403 c -0.308,0.187 -0.308,0.187 -0.293,2.214 0.016,1.766 0.02,1.832 0.125,2.094 0.243,0.606 0.621,0.918 1.102,0.918 0.625,0 1.129,-0.465 1.363,-1.254 0.063,-0.219 0.078,-0.535 0.078,-1.879 0,-1.746 -0.007,-1.808 -0.261,-2.043 -0.129,-0.117 -0.145,-0.121 -1.047,-0.132 -0.844,-0.012 -0.926,-0.004 -1.067,0.082 z m 4.106,-0.02 c -0.094,0.051 -0.188,0.156 -0.254,0.285 -0.098,0.203 -0.098,0.258 -0.082,1.965 0.019,1.68 0.023,1.773 0.125,2.043 0.234,0.637 0.621,0.953 1.152,0.953 0.547,0 1.016,-0.398 1.266,-1.086 l 0.121,-0.32 0,-1.695 c 0,-1.883 -0.008,-1.938 -0.297,-2.114 -0.156,-0.097 -0.23,-0.105 -1.023,-0.101 -0.68,0 -0.883,0.015 -1.008,0.07 z m 3.027,7.727 c -0.047,0.289 -0.332,1.117 -0.531,1.554 -0.606,1.309 -1.582,2.438 -2.656,3.067 -0.473,0.273 -0.598,0.402 -0.645,0.652 -0.027,0.145 -0.066,0.184 -0.254,0.266 -0.265,0.121 -0.246,0.121 -0.617,-0.02 -0.273,-0.105 -0.316,-0.14 -0.43,-0.351 -0.093,-0.172 -0.215,-0.293 -0.461,-0.461 -1.066,-0.731 -1.847,-1.774 -2.507,-3.356 -0.211,-0.508 -0.481,-1.332 -0.481,-1.469 0,-0.082 0.199,-0.086 4.309,-0.086 l 4.304,0 -0.031,0.204 z m -4.019,8.437 c 0.039,0.067 -0.254,0.582 -0.329,0.582 -0.054,0 -0.32,-0.406 -0.324,-0.504 -0.004,-0.023 0.078,-0.09 0.18,-0.148 0.168,-0.098 0.199,-0.098 0.316,-0.039 0.071,0.039 0.141,0.09 0.157,0.109 z M 74.836,50.406 c -0.086,0.051 -0.191,0.161 -0.234,0.247 -0.075,0.14 -0.075,0.617 -0.024,6.882 l 0.059,6.723 -1.301,3.191 c -0.711,1.754 -1.434,3.524 -1.602,3.93 -0.164,0.41 -0.589,1.449 -0.941,2.317 -0.352,0.867 -0.66,1.582 -0.688,1.589 -0.027,0.008 -0.117,-0.183 -0.203,-0.425 -0.086,-0.246 -0.422,-1.2 -0.742,-2.118 -0.324,-0.918 -1.129,-3.211 -1.789,-5.089 l -1.195,-3.414 0.031,-4.829 c 0.027,-4.679 0.027,-4.836 -0.062,-4.988 -0.122,-0.199 -0.446,-0.355 -0.665,-0.316 -0.195,0.035 -0.445,0.23 -0.507,0.398 -0.059,0.152 -0.141,9.789 -0.09,10.012 0.019,0.086 0.316,0.945 0.66,1.918 1.34,3.808 2.227,6.332 2.398,6.832 0.098,0.285 0.305,0.867 0.454,1.293 0.148,0.418 0.375,1.062 0.503,1.433 0.438,1.262 0.571,1.614 0.657,1.707 0.308,0.344 0.859,0.286 1.066,-0.117 0.086,-0.168 0.484,-1.14 2.504,-6.105 0.516,-1.274 1.086,-2.676 1.266,-3.106 0.406,-0.992 1.507,-3.726 1.543,-3.828 0.031,-0.097 -0.059,-13.258 -0.094,-13.609 -0.02,-0.223 -0.055,-0.289 -0.207,-0.442 -0.16,-0.16 -0.207,-0.179 -0.414,-0.179 -0.145,0 -0.289,0.035 -0.383,0.093 z m -5.57,0.993 c -0.446,0.011 -0.516,0.023 -0.559,0.105 -0.035,0.059 -0.047,2.027 -0.039,5.887 l 0.012,5.797 0.66,2.078 c 0.726,2.305 0.734,2.324 0.801,2.262 0.027,-0.028 0.355,-0.95 0.726,-2.051 l 0.68,-2.004 0.012,-5.969 c 0.007,-3.996 -0.004,-5.988 -0.036,-6.051 -0.046,-0.086 -0.105,-0.089 -0.898,-0.082 -0.465,0.008 -1.074,0.02 -1.359,0.028 z m 69.953,1.027 c -0.922,0.332 -1.664,1.695 -2.098,3.855 -0.305,1.512 -1.133,5.555 -1.433,6.973 -0.106,0.516 -0.29,1.387 -0.407,1.938 -1.445,6.89 -2.804,12.757 -3.418,14.746 -0.371,1.195 -0.769,1.953 -1.07,2.023 -0.367,0.098 -1.16,-0.765 -1.363,-1.48 -0.496,-1.715 -1.086,-4.043 -1.981,-7.836 -0.066,-0.274 -0.226,-0.985 -0.582,-2.559 -0.719,-3.207 -1.972,-9.312 -2.719,-13.254 -0.23,-1.23 -0.371,-1.73 -0.636,-2.293 -0.418,-0.871 -0.969,-1.312 -1.637,-1.312 -0.41,0 -0.742,0.121 -1.094,0.394 -0.617,0.489 -1.164,1.461 -1.554,2.758 -0.141,0.481 -0.75,2.777 -1.907,7.211 -1.941,7.434 -3.113,11.719 -3.547,12.969 -0.304,0.883 -0.711,1.512 -0.976,1.512 -0.305,0 -0.793,-0.567 -1.184,-1.364 -0.218,-0.449 -0.422,-0.992 -1.535,-4.086 -0.84,-2.347 -1.629,-4.515 -2.277,-6.285 -1.696,-4.609 -1.91,-5.097 -2.567,-5.793 -0.316,-0.336 -0.566,-0.504 -0.925,-0.625 -0.368,-0.125 -0.68,-0.125 -1.067,-0.004 -0.394,0.121 -0.699,0.317 -1.109,0.711 -0.949,0.918 -1.871,2.504 -4.66,8.047 -1.102,2.195 -1.274,2.488 -1.707,2.918 -0.922,0.926 -1.922,0.758 -3.219,-0.547 -0.688,-0.683 -1.156,-1.336 -2.09,-2.91 -0.098,-0.168 -0.387,-0.512 -0.633,-0.769 -0.574,-0.583 -0.898,-0.766 -1.441,-0.797 -0.321,-0.024 -0.395,-0.008 -0.656,0.105 -0.403,0.184 -0.727,0.543 -0.989,1.102 -0.414,0.871 -0.39,0.742 -1.265,8.121 -0.133,1.133 -0.34,2.871 -0.457,3.871 -0.118,1 -0.254,2.156 -0.305,2.582 -0.262,2.25 -0.387,3.242 -0.406,3.266 -0.055,0.054 -0.035,0.21 -0.551,-3.985 -0.785,-6.379 -0.762,-6.211 -0.852,-6.332 -0.312,-0.422 -0.863,-0.414 -1.113,0.031 -0.043,0.075 -0.34,1.332 -0.66,2.789 -0.32,1.461 -0.707,3.219 -0.863,3.918 -1.692,7.692 -1.539,6.926 -1.934,9.653 -0.199,1.379 -0.543,3.765 -0.77,5.301 -0.562,3.886 -0.738,5.101 -1.039,7.187 -0.144,1 -0.332,2.27 -0.41,2.824 -0.082,0.547 -0.211,1.442 -0.289,1.981 -0.078,0.539 -0.293,2.023 -0.476,3.297 -0.188,1.269 -0.477,3.269 -0.645,4.445 -0.172,1.168 -0.473,3.238 -0.672,4.609 -0.199,1.367 -0.488,3.367 -0.644,4.442 -0.157,1.078 -0.457,3.148 -0.668,4.609 -0.211,1.457 -0.481,3.328 -0.602,4.16 -0.117,0.828 -0.226,1.559 -0.242,1.625 -0.027,0.11 -0.031,0.113 -0.066,0.024 -0.024,-0.059 -0.106,-0.614 -0.188,-1.243 -0.078,-0.632 -0.285,-2.242 -0.457,-3.585 -0.172,-1.34 -0.375,-2.93 -0.453,-3.536 -0.078,-0.601 -0.215,-1.679 -0.305,-2.386 l -0.34,-2.629 c -0.093,-0.735 -0.254,-1.992 -0.359,-2.793 -0.102,-0.809 -0.273,-2.149 -0.379,-2.989 -0.109,-0.839 -0.238,-1.855 -0.289,-2.246 -0.113,-0.879 -0.355,-2.754 -0.668,-5.183 -0.129,-1.016 -0.387,-3.016 -0.57,-4.442 -0.184,-1.433 -0.422,-3.269 -0.524,-4.086 -0.105,-0.816 -0.269,-2.082 -0.363,-2.82 C 66.82,97.52 66.668,96.348 66.578,95.653 66.492,94.957 66.191,92.621 65.914,90.465 65.328,85.891 65.105,84.164 64.836,82.035 64.621,80.336 64.57,80.141 64.301,80 c -0.317,-0.164 -0.762,-0.039 -0.895,0.25 -0.066,0.153 -0.14,0.489 -0.797,3.645 -0.273,1.328 -0.511,2.422 -0.523,2.433 -0.012,0.008 -0.031,0.012 -0.039,0.004 -0.012,-0.011 -0.313,-2.914 -0.668,-6.449 l -0.645,-6.422 -0.601,-1.746 c -0.676,-1.965 -0.695,-2.004 -1.117,-2.047 -0.192,-0.012 -0.278,0 -0.407,0.086 -0.175,0.11 -0.32,0.352 -0.32,0.539 0,0.067 0.262,0.875 0.578,1.809 l 0.578,1.691 0.258,2.582 c 0.141,1.418 0.313,3.106 0.379,3.75 0.066,0.645 0.281,2.793 0.477,4.778 0.648,6.503 0.621,6.238 0.707,6.371 0.254,0.386 0.855,0.39 1.105,0.007 0.067,-0.105 0.453,-1.878 1.156,-5.304 0.118,-0.578 0.227,-1.094 0.239,-1.141 0.05,-0.16 0.097,-0.012 0.156,0.449 0.031,0.25 0.191,1.528 0.363,2.844 0.168,1.313 0.406,3.16 0.527,4.11 0.559,4.363 0.797,6.226 0.907,7.07 0.121,0.906 0.543,4.191 0.859,6.687 0.094,0.735 0.211,1.66 0.262,2.051 0.199,1.539 0.293,2.246 0.433,3.348 0.079,0.633 0.477,3.726 0.883,6.879 0.406,3.152 0.805,6.25 0.883,6.882 0.082,0.629 0.297,2.305 0.481,3.723 0.308,2.402 0.554,4.348 0.906,7.098 0.082,0.613 0.199,1.543 0.265,2.054 0.231,1.762 0.293,2.317 0.278,2.364 -0.012,0.023 -0.114,0.101 -0.231,0.164 -0.117,0.062 -0.324,0.226 -0.457,0.363 -1.031,1.094 -0.558,2.891 0.871,3.324 1.078,0.328 2.192,-0.254 2.543,-1.336 0.133,-0.406 0.09,-1.039 -0.101,-1.449 -0.172,-0.371 -0.414,-0.648 -0.739,-0.859 -0.16,-0.102 -0.234,-0.184 -0.234,-0.254 0,-0.055 0.176,-1.297 0.387,-2.75 0.211,-1.457 0.512,-3.531 0.664,-4.609 0.156,-1.075 0.457,-3.141 0.668,-4.586 0.211,-1.446 0.523,-3.61 0.695,-4.801 0.172,-1.196 0.379,-2.606 0.453,-3.129 0.078,-0.527 0.27,-1.848 0.43,-2.938 0.156,-1.089 0.559,-3.843 0.887,-6.117 0.332,-2.273 0.726,-5.012 0.883,-6.09 0.156,-1.078 0.371,-2.562 0.476,-3.297 0.109,-0.738 0.41,-2.816 0.672,-4.613 1.062,-7.34 1.195,-8.211 1.379,-9.027 0.183,-0.813 0.305,-1.375 1.363,-6.188 0.277,-1.261 0.524,-2.336 0.547,-2.386 0.039,-0.094 0.043,-0.09 0.07,0.019 0.016,0.067 0.094,0.649 0.172,1.293 0.145,1.188 0.473,3.848 1.172,9.52 0.066,0.539 0.149,1.004 0.191,1.086 0.227,0.433 0.907,0.433 1.133,-0.004 0.051,-0.102 0.114,-0.418 0.157,-0.813 0.039,-0.351 0.117,-1 0.168,-1.429 0.054,-0.438 0.183,-1.524 0.289,-2.411 0.105,-0.894 0.265,-2.25 0.355,-3.011 0.094,-0.766 0.297,-2.481 0.457,-3.821 0.16,-1.343 0.332,-2.804 0.383,-3.25 0.422,-3.64 0.871,-7.328 0.933,-7.636 0.129,-0.668 0.418,-1.344 0.625,-1.457 0.215,-0.122 0.817,0.437 1.231,1.14 0.762,1.305 1.398,2.184 2.105,2.895 1.071,1.082 1.996,1.558 3.016,1.558 0.945,-0.004 1.848,-0.531 2.586,-1.5 0.262,-0.347 0.508,-0.785 1.086,-1.945 1.305,-2.609 2.703,-5.285 3.359,-6.434 0.938,-1.644 1.66,-2.461 2.172,-2.461 0.164,0 0.219,0.036 0.457,0.278 0.332,0.336 0.61,0.832 0.942,1.68 0.57,1.464 1.796,4.804 3.656,9.964 1.203,3.34 1.344,3.719 1.574,4.203 0.434,0.911 1.066,1.653 1.652,1.942 0.289,0.144 0.372,0.156 0.711,0.156 0.317,0 0.434,-0.015 0.657,-0.125 0.597,-0.277 1.027,-0.836 1.449,-1.879 0.394,-0.98 1.586,-5.289 3.465,-12.496 1.605,-6.172 2.125,-8.105 2.316,-8.644 0.34,-0.942 0.856,-1.672 1.184,-1.672 0.351,0 0.691,0.855 1.007,2.535 0.672,3.558 1.422,7.266 2.293,11.32 1.067,4.973 2.829,12.133 3.18,12.922 0.262,0.602 1.039,1.453 1.57,1.738 0.731,0.383 1.508,0.246 2.09,-0.382 0.45,-0.485 0.789,-1.2 1.149,-2.403 0.894,-2.992 2.801,-11.535 5.062,-22.679 0.196,-0.961 0.422,-1.961 0.504,-2.223 0.188,-0.598 0.512,-1.274 0.723,-1.516 0.164,-0.187 0.168,-0.187 0.285,-0.117 0.164,0.109 0.434,0.531 0.684,1.059 0.605,1.293 1.207,3.519 1.953,7.25 0.246,1.226 0.418,2.132 1.054,5.636 0.844,4.621 1.239,6.606 1.672,8.379 0.735,3.02 1.352,4.379 2.317,5.11 0.429,0.324 0.746,0.425 1.246,0.406 0.515,-0.02 0.777,-0.141 1.168,-0.539 0.515,-0.52 0.84,-1.18 1.234,-2.516 0.387,-1.301 0.481,-1.664 2.012,-7.832 1.621,-6.523 2.379,-9.133 3.019,-10.43 0.215,-0.433 0.782,-1.167 1.098,-1.429 0.445,-0.36 0.723,-0.184 1.207,0.769 0.98,1.922 3.184,7.715 5.191,13.649 0.364,1.07 0.641,1.558 1.239,2.148 0.625,0.621 1.222,0.856 1.886,0.735 0.899,-0.164 1.59,-0.872 2.321,-2.387 1.562,-3.235 4.058,-7.742 4.734,-8.567 0.285,-0.343 0.715,-0.652 1.082,-0.777 0.684,-0.226 1.512,0.016 2.328,0.684 0.59,0.48 2.203,2.121 2.547,2.519 0.488,0.559 1.152,1.043 1.336,1.199 3.531,3.071 4.254,-0.183 8.75,-0.226 0.098,-0.008 591.352,0 592.137,-0.008 0,-0.75 0.008,-0.629 0,-1.172 -0.801,-0.023 -592.004,0 -592.098,0 -5.187,0 -5.262,3.496 -8.742,-0.203 -0.621,-0.68 -2.832,-3 -3.609,-3.512 -1.719,-1.136 -3.571,-0.839 -4.852,0.774 -0.129,0.156 -0.375,0.531 -0.555,0.836 -1.707,2.883 -2.914,5.121 -4.222,7.836 -0.36,0.75 -0.606,1.121 -0.942,1.429 -0.453,0.414 -0.761,0.375 -1.261,-0.172 -0.387,-0.425 -0.583,-0.828 -1.004,-2.089 -1.68,-4.996 -3.891,-10.813 -4.973,-13.063 -0.676,-1.418 -1.316,-1.965 -2.215,-1.914 -0.504,0.039 -0.898,0.246 -1.387,0.738 -1.472,1.473 -1.941,2.84 -4.586,13.469 -1.675,6.711 -1.925,7.598 -2.382,8.305 -0.172,0.265 -0.41,0.465 -0.563,0.465 -0.144,0 -0.519,-0.297 -0.742,-0.59 -0.887,-1.176 -1.598,-4.012 -3.148,-12.574 -1.446,-7.989 -2.165,-11.004 -3.079,-12.95 -0.304,-0.652 -0.531,-0.992 -0.886,-1.339 -0.453,-0.446 -0.985,-0.606 -1.461,-0.43 l 0,-0.008 z M 13.824,58.485 c -0.336,0.062 -0.492,0.281 -0.492,0.66 0,0.269 0.121,0.457 0.363,0.558 0.246,0.106 14.153,0.094 14.352,-0.004 0.433,-0.222 0.5,-0.816 0.125,-1.097 l -0.156,-0.121 -7.032,-0.016 c -3.863,-0.004 -7.086,0 -7.16,0.02 z m 31.762,5.429 c -0.223,0.114 -0.348,0.297 -0.352,0.52 0,0.101 0.016,0.789 0.036,1.523 0.027,0.91 0.019,1.629 -0.02,2.246 -0.324,5.18 -2.082,10.18 -5.234,14.883 -1.098,1.641 -2.516,3.395 -3.606,4.465 l -0.34,0.332 -2.32,0.027 -2.316,0.024 -0.164,0.18 c -0.145,0.16 -0.165,0.207 -0.165,0.437 0,0.238 0.02,0.285 0.165,0.449 l 0.164,0.172 2.5,0.02 c 1.375,0.007 2.546,0 2.605,-0.016 0.231,-0.055 1.285,-1.129 2.32,-2.355 3.938,-4.672 6.653,-10.5 7.434,-15.965 0.258,-1.805 0.363,-3.895 0.281,-5.688 -0.043,-0.875 -0.094,-1.047 -0.367,-1.226 -0.195,-0.133 -0.398,-0.145 -0.621,-0.028 z m -6.238,6.289 c -0.825,0.274 -1.344,0.918 -1.457,1.813 -0.11,0.859 0.308,1.738 1.015,2.152 1.188,0.699 2.672,-0.082 2.906,-1.535 0.157,-0.965 -0.355,-1.965 -1.199,-2.344 -0.32,-0.144 -0.961,-0.187 -1.265,-0.086 z m 0.859,1.375 c 0.176,0.137 0.309,0.446 0.309,0.711 0,0.649 -0.598,1.039 -1.02,0.664 -0.316,-0.277 -0.391,-0.703 -0.195,-1.117 0.164,-0.344 0.629,-0.476 0.906,-0.258 z" /><path
         id="path16"
         style="fill:#000000;fill-opacity:1;fill-rule:nonzero;stroke:none"
         d="m 153.738,0.063 c -0.105,0.047 -0.125,0.097 -0.16,0.402 -0.055,0.477 -0.039,0.504 0.25,0.461 0.274,-0.031 0.531,0.055 0.645,0.227 0.097,0.148 0.316,0.789 0.316,0.921 0,0.059 -0.344,1.215 -0.766,2.575 -0.421,1.359 -0.753,2.496 -0.738,2.515 0.035,0.063 0.774,0.063 0.809,0 0.031,-0.05 0.937,-3.097 1.031,-3.472 0.035,-0.145 0.078,-0.254 0.098,-0.254 0.019,0 0.047,0.082 0.066,0.176 0.035,0.199 0.895,3.078 1.008,3.394 l 0.074,0.203 0.359,0 c 0.243,0 0.364,-0.019 0.379,-0.062 0.012,-0.032 -0.312,-1.157 -0.722,-2.496 -0.817,-2.676 -1.082,-3.504 -1.242,-3.875 -0.129,-0.297 -0.422,-0.629 -0.629,-0.715 -0.192,-0.082 -0.621,-0.082 -0.778,-0.004 l 0,0.004 z M 3.211,1.981 C 2.258,2.188 1.477,3.035 1.125,4.235 1.031,4.567 1.02,4.711 1.02,5.567 1.02,6.676 1.074,6.965 1.406,7.684 1.582,8.059 1.676,8.192 1.984,8.492 2.551,9.059 3.039,9.27 3.766,9.27 5.34,9.27 6.438,7.961 6.562,5.942 6.621,5.004 6.453,4.11 6.094,3.414 5.836,2.918 5.301,2.36 4.898,2.172 4.359,1.922 3.773,1.856 3.211,1.981 Z M 4.504,3 C 5,3.242 5.371,3.746 5.559,4.418 5.66,4.793 5.703,5.891 5.633,6.34 5.57,6.766 5.398,7.27 5.234,7.528 5.051,7.817 4.652,8.149 4.359,8.258 4.004,8.395 3.523,8.395 3.16,8.254 2.82,8.125 2.359,7.688 2.195,7.332 1.957,6.821 1.887,6.434 1.883,5.567 1.879,4.832 1.891,4.711 1.992,4.395 2.055,4.192 2.137,3.969 2.176,3.891 2.406,3.442 2.863,3.024 3.293,2.883 3.641,2.774 4.133,2.817 4.504,3 Z M 16.391,1.957 c -0.723,0.145 -1.344,0.871 -1.516,1.785 -0.156,0.801 -0.063,1.864 0.211,2.45 0.574,1.23 2.082,1.527 3,0.589 C 18.59,6.274 18.777,5.692 18.777,4.629 18.773,3.864 18.688,3.414 18.461,2.961 18.066,2.188 17.25,1.789 16.391,1.957 Z m 0.777,0.856 c 0.258,0.113 0.516,0.414 0.648,0.75 0.106,0.254 0.114,0.351 0.114,1.066 0,0.723 -0.008,0.813 -0.114,1.074 -0.39,0.985 -1.453,1.11 -1.929,0.223 -0.36,-0.656 -0.36,-1.934 0,-2.594 0.285,-0.519 0.812,-0.738 1.281,-0.519 z m 7.273,-0.856 c -0.652,0.16 -1.179,0.77 -1.406,1.621 -0.121,0.446 -0.117,1.715 0.004,2.153 0.199,0.726 0.57,1.238 1.066,1.465 0.528,0.246 1.184,0.136 1.54,-0.247 0.085,-0.089 0.125,-0.109 0.156,-0.058 0.019,0.027 0.039,0.547 0.039,1.137 0,1.23 -0.035,1.14 0.43,1.14 0.23,0 0.292,-0.015 0.332,-0.094 C 26.66,8.965 26.672,2.199 26.609,2.106 26.582,2.067 26.473,2.051 26.242,2.063 L 25.91,2.074 25.895,2.254 C 25.879,2.465 25.848,2.477 25.691,2.313 25.414,2.016 24.852,1.856 24.441,1.957 Z m 0.731,0.867 c 0.117,0.067 0.281,0.204 0.367,0.321 0.254,0.336 0.324,0.64 0.324,1.437 0,0.594 -0.015,0.742 -0.113,1.051 -0.137,0.438 -0.43,0.77 -0.758,0.856 -0.781,0.21 -1.32,-0.708 -1.238,-2.094 0.039,-0.684 0.172,-1.059 0.48,-1.367 0.332,-0.332 0.575,-0.379 0.938,-0.204 z m 7.656,-0.843 c -1.14,0.254 -1.902,1.383 -2.07,3.043 -0.223,2.179 0.668,3.879 2.199,4.195 0.336,0.07 1.012,0.035 1.316,-0.07 0.348,-0.125 0.801,-0.465 1.02,-0.774 C 35.527,8.051 35.789,7.442 35.766,7.27 35.754,7.156 35.715,7.129 35.406,7.035 35.098,6.942 35.051,6.942 34.988,7 c -0.039,0.039 -0.07,0.102 -0.07,0.129 0,0.031 -0.063,0.188 -0.137,0.352 -0.293,0.613 -0.683,0.875 -1.304,0.875 -0.957,0 -1.563,-0.61 -1.786,-1.789 -0.109,-0.582 -0.078,-1.7 0.067,-2.239 0.238,-0.902 0.769,-1.429 1.504,-1.5 0.793,-0.074 1.453,0.446 1.679,1.313 0.121,0.465 0.129,0.465 0.551,0.336 L 35.848,4.36 35.84,4.149 C 35.832,3.832 35.566,3.207 35.281,2.836 35,2.461 34.598,2.16 34.199,2.031 c -0.355,-0.113 -1,-0.136 -1.371,-0.05 z m 5.649,-0.012 c -0.684,0.18 -1.145,0.641 -1.399,1.391 -0.121,0.367 -0.129,0.437 -0.125,1.246 0,0.797 0.008,0.886 0.121,1.23 0.153,0.453 0.36,0.781 0.668,1.063 0.668,0.597 1.711,0.582 2.356,-0.043 0.281,-0.278 0.433,-0.528 0.582,-0.973 0.109,-0.312 0.129,-0.457 0.132,-0.941 L 40.816,4.367 39.289,4.344 37.758,4.317 37.773,4.129 c 0.039,-0.535 0.305,-1.039 0.653,-1.246 0.57,-0.332 1.148,-0.125 1.461,0.527 0.078,0.168 0.16,0.321 0.179,0.329 C 40.086,3.75 40.25,3.735 40.434,3.703 40.758,3.653 40.77,3.649 40.785,3.504 40.793,3.406 40.73,3.231 40.602,2.969 40.266,2.301 39.773,1.965 39.051,1.926 38.863,1.918 38.609,1.938 38.477,1.969 Z m 1.488,3.426 C 39.902,5.942 39.57,6.379 39.137,6.489 38.672,6.606 38.227,6.375 37.98,5.891 37.867,5.66 37.77,5.27 37.809,5.199 37.824,5.172 38.297,5.153 38.914,5.153 l 1.082,0 -0.031,0.242 z M 54.332,1.953 c -0.758,0.161 -1.332,0.805 -1.523,1.7 -0.094,0.437 -0.094,1.441 0,1.894 0.109,0.524 0.351,0.981 0.691,1.293 0.375,0.352 0.703,0.477 1.223,0.481 0.328,0.003 0.425,-0.012 0.691,-0.137 0.777,-0.367 1.199,-1.16 1.211,-2.289 L 56.633,4.367 55.086,4.356 53.539,4.34 53.574,4.09 c 0.117,-0.863 0.653,-1.43 1.281,-1.355 0.372,0.043 0.594,0.222 0.797,0.64 0.09,0.192 0.188,0.356 0.215,0.364 0.028,0.011 0.199,-0.004 0.383,-0.036 L 56.582,3.649 56.578,3.469 C 56.574,3.367 56.496,3.133 56.398,2.938 56.188,2.504 55.859,2.196 55.469,2.047 55.168,1.938 54.633,1.891 54.332,1.953 Z m 1.445,3.45 C 55.641,6.563 54.43,6.918 53.832,5.981 53.695,5.766 53.566,5.289 53.621,5.203 53.641,5.172 54.051,5.156 54.73,5.156 l 1.079,0 -0.032,0.247 z m 8.914,-3.45 c -0.503,0.11 -1.05,0.575 -1.3,1.114 -0.223,0.48 -0.305,1 -0.27,1.75 0.016,0.371 0.059,0.773 0.106,0.933 0.296,1.086 1.199,1.731 2.179,1.559 C 66.199,7.16 66.762,6.574 67.008,5.633 67.125,5.172 67.113,4.067 66.98,3.567 66.715,2.559 66.09,1.981 65.207,1.934 c -0.172,-0.016 -0.402,0 -0.516,0.019 z m 0.778,0.86 c 0.586,0.261 0.879,1.093 0.781,2.211 -0.066,0.793 -0.418,1.343 -0.934,1.465 -0.574,0.136 -1.07,-0.223 -1.293,-0.954 -0.113,-0.367 -0.113,-1.445 0,-1.82 0.129,-0.418 0.352,-0.711 0.657,-0.863 0.3,-0.156 0.523,-0.164 0.789,-0.039 z M 81.543,1.969 C 81.113,2.09 80.762,2.438 80.605,2.879 80.527,3.102 80.52,3.332 80.52,5.156 l 0,2.032 0.714,0 0.032,-1.817 c 0.027,-1.867 0.05,-2.097 0.23,-2.332 0.316,-0.398 1.074,-0.34 1.371,0.11 0.25,0.382 0.27,0.515 0.301,2.34 l 0.027,1.699 0.356,0.011 c 0.25,0.008 0.363,-0.003 0.39,-0.046 C 83.988,7.082 84,2.239 83.953,2.125 83.934,2.067 83.852,2.051 83.602,2.051 c -0.364,0 -0.383,0.016 -0.383,0.348 l 0,0.195 -0.227,-0.219 C 82.867,2.254 82.672,2.11 82.559,2.051 82.305,1.922 81.836,1.891 81.543,1.969 Z M 93.477,1.953 c -0.438,0.114 -0.766,0.383 -0.95,0.789 -0.156,0.34 -0.156,0.997 0,1.336 0.301,0.661 0.551,0.797 1.918,1.051 0.227,0.043 0.512,0.11 0.641,0.152 L 95.32,5.356 95.297,5.684 C 95.254,6.278 94.973,6.524 94.328,6.516 93.762,6.504 93.547,6.344 93.367,5.809 L 93.289,5.574 93,5.606 c -0.418,0.047 -0.48,0.09 -0.441,0.304 0.05,0.286 0.285,0.743 0.48,0.942 0.613,0.609 2.047,0.652 2.668,0.082 0.141,-0.137 0.25,-0.317 0.328,-0.559 0.027,-0.078 0.067,-0.961 0.082,-1.961 0.031,-1.523 0.047,-1.847 0.113,-2.023 0.118,-0.313 0.094,-0.34 -0.32,-0.34 -0.394,0 -0.449,0.031 -0.492,0.305 -0.016,0.093 -0.047,0.172 -0.07,0.172 -0.02,0 -0.153,-0.086 -0.289,-0.192 C 94.918,2.231 94.688,2.102 94.543,2.043 94.238,1.934 93.742,1.891 93.48,1.953 l -0.003,0 z m 1.05,0.844 c 0.254,0.094 0.598,0.461 0.676,0.731 0.074,0.242 0.129,0.828 0.09,0.925 C 95.27,4.52 95.238,4.524 95.035,4.457 94.91,4.418 94.562,4.336 94.266,4.274 93.969,4.207 93.652,4.114 93.562,4.059 93.266,3.871 93.164,3.34 93.367,3.028 93.586,2.696 94.012,2.614 94.527,2.797 Z m 20.551,-0.82 c -0.652,0.172 -1.008,0.676 -1.008,1.433 0,0.68 0.297,1.192 0.84,1.442 0.137,0.054 0.547,0.164 0.918,0.226 0.367,0.071 0.77,0.157 0.895,0.2 l 0.226,0.078 0,0.269 c -0.004,0.61 -0.301,0.891 -0.957,0.883 -0.539,0 -0.785,-0.164 -0.945,-0.641 l -0.09,-0.257 -0.297,0.011 c -0.402,0.02 -0.496,0.071 -0.453,0.27 0.121,0.57 0.492,1.078 0.926,1.265 0.535,0.235 1.418,0.235 1.894,0 0.258,-0.125 0.567,-0.46 0.641,-0.695 0.039,-0.121 0.07,-0.805 0.094,-1.976 0.031,-1.434 0.05,-1.844 0.117,-2.075 0.043,-0.16 0.059,-0.3 0.035,-0.324 -0.023,-0.019 -0.203,-0.035 -0.394,-0.023 l -0.356,0.011 -0.07,0.227 c -0.039,0.125 -0.09,0.227 -0.114,0.227 -0.023,0 -0.117,-0.067 -0.207,-0.145 -0.445,-0.391 -1.14,-0.559 -1.695,-0.406 z m 1.281,0.914 c 0.391,0.223 0.59,0.68 0.59,1.34 0,0.277 -0.008,0.308 -0.082,0.285 -0.109,-0.047 -0.691,-0.192 -1.176,-0.289 -0.273,-0.063 -0.414,-0.121 -0.535,-0.227 -0.363,-0.316 -0.316,-0.976 0.09,-1.191 0.285,-0.16 0.77,-0.117 1.113,0.082 z m 19.457,-0.899 c -0.691,0.235 -1.171,0.852 -1.336,1.735 -0.082,0.433 -0.07,1.472 0.02,1.894 0.145,0.688 0.555,1.274 1.066,1.532 0.289,0.148 0.762,0.218 1.082,0.16 0.692,-0.125 1.125,-0.547 1.348,-1.321 0.078,-0.261 0.078,-0.285 0,-0.339 -0.098,-0.071 -0.562,-0.137 -0.668,-0.094 -0.039,0.012 -0.074,0.062 -0.074,0.109 0,0.051 -0.055,0.203 -0.125,0.34 -0.168,0.336 -0.418,0.508 -0.754,0.508 -0.457,-0.008 -0.789,-0.274 -0.992,-0.797 -0.125,-0.32 -0.176,-1.344 -0.09,-1.828 0.133,-0.77 0.613,-1.238 1.168,-1.152 0.426,0.07 0.703,0.39 0.84,0.976 l 0.062,0.262 0.293,-0.031 c 0.399,-0.04 0.457,-0.067 0.457,-0.219 0,-0.426 -0.371,-1.149 -0.738,-1.442 -0.437,-0.343 -1.047,-0.461 -1.559,-0.293 z M 47.871,2.024 c -0.234,0.078 -0.406,0.218 -0.523,0.429 -0.071,0.125 -0.082,0.403 -0.106,2.055 l -0.023,1.914 -0.477,0.047 0,0.719 0.215,0.011 c 0.117,0.008 0.231,0.043 0.25,0.075 0.02,0.035 0.035,0.308 0.035,0.617 l 0,0.558 0.301,0.243 c 0.469,0.375 0.465,0.379 0.465,-0.563 0,-0.437 0.015,-0.828 0.039,-0.855 0.019,-0.035 0.172,-0.067 0.344,-0.075 l 0.308,-0.011 0,-0.719 L 48.367,6.446 48.031,6.422 48.016,4.989 c -0.008,-0.79 0,-1.547 0.015,-1.688 0.043,-0.34 0.16,-0.461 0.414,-0.426 C 48.695,2.91 48.754,2.84 48.793,2.453 48.82,2.207 48.812,2.117 48.762,2.067 48.664,1.969 48.121,1.942 47.871,2.024 Z m 92.227,-0.043 c -0.028,0.004 -0.106,0.023 -0.176,0.043 -0.192,0.043 -0.426,0.257 -0.535,0.5 -0.09,0.207 -0.098,0.332 -0.117,2.066 l -0.02,1.852 -0.223,0.011 -0.218,0.016 0,0.719 0.453,0.027 0,0.586 c 0,0.395 0.019,0.609 0.058,0.66 0.098,0.121 0.602,0.473 0.68,0.473 0.059,0 0.074,-0.133 0.086,-0.852 l 0.012,-0.847 0.332,-0.028 0.336,-0.019 0,-0.719 -0.336,-0.023 -0.332,-0.024 0,-3.379 0.117,-0.094 c 0.09,-0.074 0.164,-0.089 0.293,-0.074 0.097,0.016 0.199,0.008 0.23,-0.011 0.074,-0.047 0.168,-0.715 0.11,-0.778 -0.09,-0.09 -0.59,-0.164 -0.75,-0.105 z m 11.695,0.015 c -0.285,0.075 -0.465,0.215 -0.586,0.461 l -0.121,0.239 -0.031,3.75 -0.203,0 c -0.278,0 -0.325,0.07 -0.305,0.437 l 0.012,0.305 0.242,0.019 0.238,0.028 0.047,1.234 0.32,0.238 c 0.192,0.137 0.352,0.227 0.395,0.203 0.062,-0.015 0.074,-0.16 0.074,-0.863 l 0,-0.84 0.328,0 c 0.258,0 0.336,-0.015 0.359,-0.074 C 152.613,7 152.594,6.567 152.535,6.5 152.5,6.469 152.344,6.446 152.176,6.446 l -0.301,0 0,-3.344 0.121,-0.125 c 0.106,-0.106 0.156,-0.121 0.309,-0.102 0.246,0.031 0.285,-0.023 0.32,-0.457 0.023,-0.312 0.016,-0.355 -0.059,-0.387 -0.144,-0.05 -0.609,-0.074 -0.773,-0.035 z M 7.422,2.094 C 7.406,2.121 7.727,2.731 8.137,3.438 L 8.879,4.727 8.207,5.899 C 7.832,6.551 7.547,7.106 7.559,7.149 7.582,7.199 7.68,7.211 8.027,7.199 L 8.469,7.188 8.887,6.399 C 9.117,5.965 9.324,5.606 9.348,5.594 9.371,5.586 9.578,5.91 9.809,6.317 c 0.23,0.398 0.453,0.761 0.492,0.808 0.058,0.067 0.152,0.082 0.469,0.082 0.23,0 0.41,-0.015 0.429,-0.051 0.016,-0.027 -0.281,-0.57 -0.664,-1.203 L 9.844,4.797 9.918,4.653 C 9.957,4.574 10.289,3.989 10.656,3.352 11.023,2.707 11.309,2.153 11.297,2.117 11.277,2.067 11.172,2.051 10.875,2.051 10.656,2.051 10.457,2.067 10.426,2.086 10.398,2.106 10.152,2.524 9.883,3.02 9.613,3.508 9.379,3.914 9.363,3.91 9.348,3.91 9.105,3.5 8.828,2.992 L 8.324,2.074 7.891,2.063 C 7.621,2.051 7.441,2.067 7.422,2.094 Z m 5.117,0.027 c -0.016,0.043 -0.031,1.035 -0.031,2.203 l 0,2.122 -0.25,0 c -0.141,0 -0.281,0.023 -0.313,0.054 -0.058,0.067 -0.078,0.5 -0.027,0.633 0.02,0.059 0.098,0.074 0.309,0.074 l 0.281,0 0.004,0.324 c 0,0.43 0.078,0.946 0.168,1.141 0.093,0.192 0.281,0.387 0.472,0.484 0.188,0.098 0.805,0.133 1.071,0.063 L 14.434,9.16 14.398,8.824 C 14.352,8.34 14.352,8.34 14.082,8.371 13.957,8.391 13.777,8.375 13.684,8.356 13.422,8.278 13.355,8.133 13.348,7.649 l -0.004,-0.414 0.383,-0.028 0.382,-0.019 0,-0.719 L 13.344,6.422 13.32,4.246 13.297,2.074 12.934,2.063 c -0.301,-0.016 -0.372,0 -0.395,0.058 z m 7.492,-0.015 c -0.011,0.039 -0.015,1.191 -0.008,2.57 l 0.012,2.512 0.344,0.011 c 0.379,0.016 0.371,0.02 0.406,-0.339 l 0.012,-0.133 0.152,0.215 c 0.188,0.261 0.399,0.379 0.688,0.379 0.234,0.003 0.656,-0.172 0.699,-0.29 C 22.367,6.949 22.223,6.391 22.141,6.278 22.09,6.203 22.066,6.203 21.836,6.278 21.531,6.379 21.383,6.352 21.18,6.145 20.883,5.852 20.855,5.664 20.824,3.774 l -0.027,-1.7 -0.371,-0.011 c -0.27,-0.012 -0.375,0.004 -0.395,0.043 z m 22.121,0 c -0.011,0.039 -0.015,1.191 -0.011,2.57 l 0.015,2.512 0.668,0 0.016,-0.231 c 0.015,-0.238 0.066,-0.285 0.148,-0.133 0.09,0.165 0.465,0.387 0.789,0.465 0.258,0.067 0.36,0.067 0.586,0.028 0.539,-0.114 0.836,-0.336 1.047,-0.793 l 0.137,-0.293 0,-4.157 -0.715,0 -0.027,1.868 C 44.781,5.703 44.777,5.817 44.68,6.024 44.531,6.344 44.328,6.469 43.945,6.469 43.566,6.469 43.332,6.34 43.16,6.047 42.945,5.672 42.93,5.543 42.902,3.774 l -0.031,-1.7 -0.348,-0.011 c -0.25,-0.012 -0.351,0.004 -0.371,0.043 z m 7.653,0.015 c -0.043,0.118 -0.035,4.961 0.011,5.032 0.028,0.043 0.137,0.058 0.372,0.046 l 0.328,-0.011 0.046,-0.481 0.141,0.203 c 0.281,0.418 0.695,0.528 1.152,0.297 C 52.141,7.067 52.156,7 52.02,6.539 51.906,6.16 51.945,6.176 51.516,6.309 51.344,6.356 51.297,6.356 51.137,6.274 50.676,6.047 50.629,5.821 50.594,3.746 L 50.562,2.074 50.199,2.063 c -0.301,-0.016 -0.371,0 -0.394,0.058 z m 11.035,0 c -0.016,0.043 -0.028,1.035 -0.028,2.203 l 0,2.122 -0.253,0 c -0.141,0 -0.278,0.023 -0.313,0.054 -0.058,0.067 -0.078,0.5 -0.027,0.633 0.023,0.059 0.097,0.074 0.304,0.074 l 0.274,0 0.035,0.539 c 0.02,0.297 0.059,0.633 0.086,0.75 0.074,0.293 0.418,0.649 0.707,0.719 0.219,0.063 0.941,0.043 1.051,-0.023 0.043,-0.028 0.051,-0.125 0.031,-0.36 C 62.66,8.352 62.656,8.34 62.371,8.367 61.812,8.422 61.66,8.27 61.652,7.649 l -0.004,-0.414 0.383,-0.028 0.383,-0.019 0,-0.719 L 61.648,6.422 61.625,4.246 61.602,2.074 61.234,2.063 c -0.3,-0.016 -0.367,0 -0.394,0.058 z m 7.504,0 c -0.039,0.106 -0.039,4.914 -0.004,5.012 0.023,0.059 0.105,0.078 0.359,0.078 0.36,0 0.356,0 0.387,-0.351 0.016,-0.133 0.016,-0.133 0.172,0.086 0.222,0.32 0.508,0.437 0.844,0.367 C 70.234,7.281 70.414,7.211 70.5,7.16 70.688,7.047 70.695,6.934 70.543,6.52 70.426,6.199 70.414,6.196 70.043,6.313 69.855,6.364 69.816,6.36 69.66,6.278 69.566,6.227 69.438,6.11 69.379,6.024 69.188,5.735 69.156,5.453 69.129,3.727 L 69.102,2.074 68.738,2.063 c -0.3,-0.016 -0.371,0 -0.394,0.058 z m 6.023,-0.043 c -0.019,0.024 -0.035,1.614 -0.035,3.536 0,3.144 0.008,3.5 0.074,3.531 0.043,0.011 0.192,0.023 0.332,0.023 0.442,0 0.407,0.121 0.407,-1.433 0,-1.106 0.011,-1.379 0.066,-1.426 0.047,-0.035 0.465,-0.055 1.445,-0.039 l 1.379,0.008 0.012,1.382 c 0.008,0.922 0.031,1.407 0.066,1.446 0.075,0.086 0.68,0.086 0.754,0 0.039,-0.047 0.051,-1.016 0.039,-3.547 l -0.011,-3.485 -0.813,0 -0.047,3.25 -1.422,0.012 C 75.832,5.34 75.188,5.34 75.184,5.336 75.176,5.328 75.16,4.59 75.145,3.699 L 75.121,2.074 74.762,2.063 c -0.2,-0.012 -0.379,0 -0.395,0.015 z m 11.121,0.028 c -0.015,0.039 -0.019,1.191 -0.011,2.57 l 0.011,2.512 0.668,0 0.016,-0.164 c 0.023,-0.317 0.047,-0.325 0.262,-0.114 0.55,0.539 1.418,0.559 1.882,0.043 0.102,-0.113 0.204,-0.242 0.231,-0.293 0.047,-0.078 0.078,-0.058 0.305,0.18 0.328,0.352 0.605,0.481 1.007,0.484 0.172,0 0.395,-0.027 0.5,-0.058 0.262,-0.094 0.567,-0.395 0.703,-0.692 l 0.11,-0.25 0,-4.25 -0.715,0 -0.023,1.911 C 90.41,5.774 90.402,5.906 90.312,6.086 89.977,6.754 89.07,6.547 88.828,5.746 88.777,5.571 88.762,5.153 88.762,3.844 88.762,2.922 88.742,2.145 88.719,2.106 88.691,2.067 88.578,2.047 88.328,2.063 L 87.973,2.074 87.949,3.985 C 87.926,5.801 87.918,5.906 87.824,6.114 87.711,6.356 87.496,6.492 87.227,6.492 87.012,6.492 86.68,6.324 86.559,6.149 86.324,5.824 86.309,5.668 86.277,3.817 L 86.254,2.074 85.883,2.063 C 85.613,2.051 85.504,2.067 85.488,2.106 Z M 97.621,2.11 c -0.012,0.035 -0.016,1.187 -0.008,2.566 l 0.012,2.512 0.668,0 0.016,-0.164 c 0.023,-0.313 0.043,-0.325 0.261,-0.114 0.293,0.289 0.602,0.411 1.035,0.411 0.809,0 1.301,-0.457 1.434,-1.332 0.031,-0.204 0.047,-1.028 0.039,-2.125 l -0.016,-1.79 -0.761,0 -0.028,1.887 c -0.015,1.399 -0.039,1.93 -0.085,2.031 C 99.996,6.438 99.512,6.614 99.059,6.403 98.816,6.293 98.684,6.149 98.547,5.852 98.438,5.614 98.438,5.567 98.422,3.942 98.418,3.02 98.398,2.215 98.387,2.156 98.363,2.063 98.336,2.051 98.004,2.051 c -0.242,0 -0.367,0.02 -0.383,0.059 z m 7.75,0.011 c -0.019,0.043 -0.031,1.614 -0.031,3.489 0,3.039 0.008,3.418 0.074,3.484 0.066,0.062 0.238,0.074 1.184,0.074 1.25,0 1.593,-0.039 1.957,-0.203 0.66,-0.305 1.066,-1.141 0.937,-1.941 -0.062,-0.383 -0.195,-0.668 -0.457,-0.957 l -0.211,-0.239 0.184,-0.117 c 0.25,-0.16 0.48,-0.43 0.625,-0.746 0.144,-0.316 0.195,-0.969 0.105,-1.398 -0.133,-0.633 -0.55,-1.164 -1.093,-1.379 -0.258,-0.106 -0.344,-0.114 -1.758,-0.125 -1.348,-0.02 -1.489,-0.012 -1.516,0.058 z m 2.93,0.946 c 0.5,0.218 0.73,0.828 0.551,1.453 -0.094,0.324 -0.329,0.582 -0.625,0.676 -0.207,0.07 -1.704,0.132 -1.903,0.085 l -0.125,-0.031 0,-1.109 c 0,-0.617 0.016,-1.137 0.035,-1.156 0.02,-0.02 0.457,-0.028 0.969,-0.016 0.707,0.012 0.973,0.035 1.098,0.098 z m -0.117,3.246 c 0.332,0.179 0.468,0.429 0.472,0.879 0.004,0.437 -0.144,0.75 -0.426,0.898 -0.171,0.094 -0.289,0.102 -1.109,0.113 l -0.922,0.016 0,-0.973 c 0,-0.539 0.016,-0.992 0.035,-1.011 0.02,-0.02 0.434,-0.028 0.922,-0.02 0.703,0.016 0.91,0.031 1.028,0.098 z m 2.964,-4.188 c -0.035,0.102 -0.039,4.91 0,5.008 0.024,0.059 0.102,0.078 0.36,0.078 0.355,0 0.355,0 0.387,-0.351 0.015,-0.133 0.015,-0.133 0.171,0.086 0.219,0.32 0.508,0.437 0.844,0.367 0.133,-0.032 0.313,-0.098 0.399,-0.153 0.187,-0.113 0.195,-0.226 0.043,-0.64 -0.118,-0.317 -0.129,-0.324 -0.504,-0.207 -0.184,0.051 -0.223,0.047 -0.379,-0.035 -0.098,-0.051 -0.223,-0.164 -0.281,-0.254 -0.192,-0.289 -0.223,-0.571 -0.254,-2.297 L 111.91,2.074 111.543,2.063 c -0.301,-0.016 -0.367,0 -0.395,0.062 z m 8.125,0 c -0.046,0.114 -0.035,4.957 0.012,5.028 0.027,0.043 0.141,0.058 0.391,0.046 l 0.355,-0.011 0,-5.114 -0.363,-0.011 c -0.301,-0.016 -0.371,0 -0.395,0.062 z m 2.286,-0.015 c -0.012,0.035 -0.02,1.187 -0.012,2.566 l 0.012,2.512 0.671,0 0.012,-0.231 c 0.008,-0.125 0.031,-0.226 0.051,-0.226 0.019,0 0.117,0.086 0.219,0.187 0.269,0.278 0.593,0.403 1.031,0.403 0.418,0 0.695,-0.102 0.992,-0.368 0.25,-0.222 0.379,-0.543 0.442,-1.058 0.054,-0.512 0.062,-3.699 0.007,-3.789 -0.027,-0.039 -0.144,-0.055 -0.394,-0.043 l -0.356,0.011 -0.046,3.778 -0.118,0.211 c -0.156,0.269 -0.32,0.386 -0.593,0.418 -0.43,0.047 -0.844,-0.215 -1.016,-0.657 -0.074,-0.183 -0.086,-0.425 -0.098,-1.882 -0.008,-0.922 -0.027,-1.727 -0.039,-1.786 -0.023,-0.093 -0.051,-0.105 -0.383,-0.105 -0.246,0 -0.367,0.02 -0.382,0.059 z m 6.73,0.007 c -0.012,0.039 0.106,0.489 0.266,0.993 1.117,3.582 1.871,5.933 1.918,5.996 0.062,0.07 0.738,0.093 0.847,0.023 0.063,-0.039 2.352,-6.844 2.352,-6.988 0,-0.078 -0.047,-0.09 -0.426,-0.09 -0.308,0 -0.437,0.016 -0.48,0.066 -0.032,0.039 -0.192,0.504 -0.356,1.039 l -0.301,0.973 -2.367,0 -0.285,-0.98 C 129.301,2.61 129.148,2.145 129.121,2.11 129.047,2.024 128.324,2.028 128.289,2.117 Z m 3.488,2.934 c 0.016,0.02 -0.113,0.488 -0.281,1.039 -0.172,0.555 -0.367,1.199 -0.434,1.441 -0.07,0.243 -0.144,0.446 -0.16,0.446 -0.019,0 -0.062,-0.121 -0.093,-0.278 -0.036,-0.152 -0.223,-0.789 -0.414,-1.421 -0.196,-0.629 -0.356,-1.172 -0.356,-1.207 0,-0.043 0.203,-0.055 0.859,-0.055 0.469,0 0.868,0.015 0.879,0.035 z m 10.094,-2.926 c -0.047,0.117 -0.035,4.957 0.012,5.028 0.027,0.043 0.14,0.058 0.39,0.046 l 0.356,-0.007 0,-5.118 -0.363,-0.011 c -0.301,-0.016 -0.371,0 -0.395,0.062 z m 3.418,0.008 c -0.082,0.148 -1.535,4.867 -1.535,4.973 0,0.097 0.019,0.105 0.383,0.105 0.351,0 0.386,-0.012 0.429,-0.105 0.071,-0.164 1.051,-3.528 1.051,-3.602 0,-0.238 0.133,0.145 0.613,1.762 0.301,1.008 0.567,1.851 0.59,1.883 0.055,0.07 0.735,0.086 0.774,0.019 0.031,-0.047 -1.489,-4.965 -1.563,-5.058 -0.027,-0.039 -0.168,-0.059 -0.371,-0.059 -0.262,0 -0.336,0.016 -0.371,0.082 z m 3.359,-0.027 c -0.011,0.039 -0.019,1.191 -0.011,2.57 l 0.011,2.516 0.766,0 0,-5.118 -0.371,-0.011 c -0.27,-0.012 -0.379,0.004 -0.395,0.043 z m -29.375,6.043 c -0.05,0.125 -0.035,0.832 0.02,0.925 0.039,0.079 0.102,0.094 0.352,0.094 0.199,0 0.32,-0.019 0.359,-0.062 0.035,-0.043 0.051,-0.235 0.039,-0.539 l -0.012,-0.473 -0.363,-0.016 c -0.301,-0.011 -0.371,0 -0.395,0.071 z m 22.598,0 c -0.051,0.125 -0.035,0.832 0.02,0.925 0.039,0.079 0.101,0.094 0.351,0.094 0.203,0 0.324,-0.019 0.36,-0.062 0.035,-0.043 0.05,-0.235 0.043,-0.539 l -0.016,-0.473 -0.363,-0.016 c -0.301,-0.011 -0.371,0 -0.395,0.071 z m 6.789,-0.047 c -0.062,0.058 -0.039,0.945 0.024,1.008 0.082,0.082 0.632,0.082 0.703,-0.004 0.035,-0.043 0.051,-0.235 0.039,-0.539 l -0.012,-0.473 -0.359,-0.016 c -0.2,-0.007 -0.379,0 -0.395,0.024 z M 10.789,16.196 c -0.512,0.019 -1.168,0.058 -1.457,0.085 -0.289,0.032 -0.773,0.075 -1.074,0.102 -1.356,0.133 -2.719,0.5 -3.75,1.016 -1.422,0.711 -2.414,2.082 -2.899,4 -0.468,1.847 -0.66,4.093 -0.66,7.668 0,5.496 0.285,7.875 1.176,9.765 0.566,1.211 1.363,2.043 2.426,2.539 1.433,0.672 3.261,1.051 5.523,1.153 1.731,0.078 11.766,0.109 13.375,0.043 3.797,-0.149 6.215,-0.625 7.77,-1.543 1.719,-1.008 2.582,-3.196 2.941,-7.442 0.102,-1.183 0.086,-7.355 -0.023,-8.691 -0.211,-2.617 -0.481,-3.84 -1.11,-5.067 C 32.34,18.485 31.34,17.656 29.66,17.039 28.402,16.571 26.586,16.313 23.855,16.192 22.559,16.141 12.223,16.145 10.789,16.196 Z m 13.047,2.839 c 2.594,0.129 3.441,0.243 4.344,0.582 0.699,0.262 1.343,0.747 1.672,1.258 0.324,0.504 0.683,1.66 0.836,2.703 0.117,0.801 0.164,2.036 0.195,5.371 0.031,3.258 0,4.461 -0.149,5.829 -0.199,1.785 -0.468,2.703 -1,3.414 -0.589,0.789 -1.722,1.246 -3.488,1.41 -0.965,0.09 -1.367,0.097 -5.043,0.144 C 16.109,39.817 10.598,39.703 9.047,39.504 7.289,39.278 6.098,38.817 5.582,38.164 4.902,37.301 4.551,35.879 4.438,33.52 4.281,30.281 4.258,26.41 4.387,24.938 c 0.148,-1.707 0.433,-3 0.84,-3.856 0.457,-0.957 1.636,-1.582 3.507,-1.851 1.082,-0.16 2.641,-0.192 12.567,-0.262 0.621,-0.004 1.758,0.027 2.535,0.066 z m 16.789,-2.546 c -0.012,0.035 -0.02,5.867 -0.012,12.96 l 0.012,12.903 1.559,0.012 c 1.269,0.007 1.57,0 1.613,-0.051 0.039,-0.047 0.058,-1.578 0.066,-5.606 l 0.012,-5.539 11.937,-0.012 c 8.766,-0.007 11.958,0.004 12.004,0.043 0.055,0.043 0.067,1.012 0.079,5.602 l 0.011,5.551 3.106,0 0,-25.899 -3.106,0 -0.047,11.993 -24.007,0.023 0,-5.941 c 0,-3.27 -0.016,-5.981 -0.032,-6.024 -0.023,-0.062 -0.211,-0.07 -1.601,-0.07 -1.215,0 -1.578,0.012 -1.594,0.055 z m 37.609,-0.028 c -0.019,0.02 -0.031,5.828 -0.031,12.914 0,9.957 0.012,12.899 0.055,12.942 0.078,0.078 22.031,0.082 22.879,0.007 0.722,-0.058 1.683,-0.25 2.246,-0.425 0.648,-0.211 1.531,-0.664 2.023,-1.035 0.946,-0.715 1.535,-1.786 1.832,-3.329 0.067,-0.363 0.082,-0.695 0.082,-1.847 -0.004,-1.528 -0.043,-1.907 -0.285,-2.746 -0.418,-1.45 -1.258,-2.09 -3.457,-2.657 -0.57,-0.14 -0.578,-0.136 0.297,-0.257 1.727,-0.243 2.855,-0.813 3.473,-1.758 0.363,-0.559 0.636,-1.391 0.797,-2.426 0.117,-0.781 0.117,-2.988 0,-3.785 -0.309,-2.067 -1.036,-3.426 -2.247,-4.227 -1.148,-0.754 -2.644,-1.187 -4.64,-1.351 -0.684,-0.055 -22.969,-0.075 -23.024,-0.02 z m 22.993,2.778 c 0.855,0.14 1.41,0.3 1.992,0.582 0.39,0.195 0.531,0.289 0.758,0.535 0.691,0.75 0.984,1.945 0.918,3.765 -0.059,1.61 -0.368,2.696 -0.934,3.285 -0.594,0.622 -1.465,0.954 -2.883,1.114 -0.312,0.031 -3.633,0.047 -10.047,0.047 l -9.578,0 0,-4.7 c 0,-2.582 0.012,-4.711 0.031,-4.726 0.02,-0.024 4.325,-0.031 9.567,-0.024 l 9.535,0.016 0.641,0.106 z m -1.141,12.101 c 1.535,0.141 2.672,0.582 3.16,1.227 0.492,0.648 0.699,1.39 0.738,2.664 0.043,1.273 -0.07,2.004 -0.414,2.726 -0.398,0.832 -1.125,1.258 -2.625,1.535 -0.422,0.079 -1.152,0.086 -9.976,0.098 l -9.516,0.016 0,-8.317 9.039,0 c 5.953,0 9.231,0.02 9.594,0.051 z m 10.629,-14.859 c -0.016,0.023 -0.02,0.062 -0.012,0.086 0.047,0.082 8.985,15.214 9.543,16.16 0.336,0.558 1.734,2.926 3.106,5.254 1.371,2.328 2.527,4.261 2.57,4.308 0.066,0.078 0.23,0.082 2.16,0.082 1.613,0 2.102,-0.011 2.137,-0.054 0.027,-0.036 0.383,-0.621 0.785,-1.301 0.406,-0.688 1.25,-2.102 1.871,-3.145 0.621,-1.047 1.633,-2.742 2.246,-3.769 0.613,-1.035 2.254,-3.789 3.649,-6.133 3.515,-5.902 5.929,-9.953 6.402,-10.762 0.223,-0.371 0.39,-0.699 0.371,-0.726 -0.02,-0.035 -0.629,-0.047 -1.816,-0.047 l -1.786,0 -0.089,0.133 c -0.051,0.066 -0.809,1.367 -1.684,2.875 -0.875,1.507 -1.613,2.761 -1.641,2.785 -0.031,0.015 -4.715,0.031 -10.41,0.031 -8.222,0 -10.363,-0.012 -10.406,-0.059 -0.031,-0.031 -0.781,-1.339 -1.664,-2.902 l -1.609,-2.844 -1.848,-0.011 c -1.207,-0.004 -1.856,0.004 -1.875,0.039 z m 26.254,8.5 c 0,0.019 -1.785,3.039 -3.969,6.695 -2.184,3.664 -4.176,7.012 -4.43,7.438 -0.258,0.425 -0.484,0.769 -0.508,0.761 -0.046,-0.015 -8.773,-14.836 -8.773,-14.894 0,-0.028 3.981,-0.043 8.84,-0.043 4.98,0 8.84,0.015 8.84,0.043 z" /></g></g></svg>