<?xml version="1.0" encoding="UTF-8" standalone="no"?>
<svg
   xmlns:dc="http://purl.org/dc/elements/1.1/"
   xmlns:cc="http://creativecommons.org/ns#"
   xmlns:rdf="http://www.w3.org/1999/02/22-rdf-syntax-ns#"
   xmlns:svg="http://www.w3.org/2000/svg"
   xmlns="http://www.w3.org/2000/svg"
   xmlns:sodipodi="http://sodipodi.sourceforge.net/DTD/sodipodi-0.dtd"
   xmlns:inkscape="http://www.inkscape.org/namespaces/inkscape"
   viewBox="0 0 237.41269 118.42737"
   height="118.42737"
   width="237.41269"
   xml:space="preserve"
   version="1.1"
   id="svg2"
   inkscape:version="0.91 r13725"
   sodipodi:docname="OHBA-logo_white.svg"><sodipodi:namedview
     pagecolor="#ffffff"
     bordercolor="#666666"
     borderopacity="1"
     objecttolerance="10"
     gridtolerance="10"
     guidetolerance="10"
     inkscape:pageopacity="0"
     inkscape:pageshadow="2"
     inkscape:window-width="1440"
     inkscape:window-height="851"
     id="namedview9"
     showgrid="false"
     fit-margin-top="0"
     fit-margin-left="0"
     fit-margin-right="0"
     fit-margin-bottom="0"
     inkscape:zoom="2.1225557"
     inkscape:cx="96.22986"
     inkscape:cy="-17.535008"
     inkscape:window-x="0"
     inkscape:window-y="0"
     inkscape:window-maximized="1"
     inkscape:current-layer="svg2" /><metadata
     id="metadata8"><rdf:RDF><cc:Work
         rdf:about=""><dc:format>image/svg+xml</dc:format><dc:type
           rdf:resource="http://purl.org/dc/dcmitype/StillImage" /><dc:title></dc:title></cc:Work></rdf:RDF></metadata><defs
     id="defs6" /><path
     id="path14"
     style="fill:#ffffff;fill-opacity:1;fill-rule:nonzero;stroke:none"
     d="m 72.198251,118.33158 c -0.0875,-0.0537 -0.205,-0.18625 -0.26875,-0.28375 -0.1075,-0.18 -0.1125,-0.4925 -0.14125,-7.73875 l -0.03,-7.55375 -2.03125,-0.0337 c -1.1175,-0.01 -2.07,-0.0538 -2.11875,-0.0837 -0.24875,-0.14125 -0.37625,-0.33625 -0.5175,-0.77625 -0.1325,-0.405 -0.16125,-0.645 -0.205,-1.5525 -0.08375,-1.869996 -0.3425,-3.691246 -0.77625,-5.453746 -0.23,-0.9425 -0.67375,-2.46625 -0.7675,-2.6375 -0.03375,-0.0538 -0.1025,0.025 -0.22875,0.24875 -0.5525,0.9825 -1.61125,1.06 -2.2125,0.16625 -0.3125,-0.46875 -0.39,-0.79125 -0.395,-1.58625 -0.005,-0.615 0.02,-0.77125 0.14125,-1.12375 0.08375,-0.22375 0.24,-0.5125 0.35125,-0.64375 0.20125,-0.235 0.58125,-0.47375 0.7525,-0.47375 0.18125,0 0.14625,-0.1325 -0.21,-0.835 -1.62625,-3.2575 -3.8375,-6.43125 -6.7675,-9.73125 -0.9325,-1.05 -3.4125,-3.53125 -4.51125,-4.5075 -2.505,-2.22125 -5.1475,-4.2725 -7.55875,-5.86375 -1.27,-0.835 -1.31875,-0.86 -1.43125,-0.69875 -0.04875,0.07375 -0.18,0.17125 -0.2925,0.225 -0.18625,0.0825 -0.77125,0.0925 -6.065,0.0925 -6.41125,0 -6.09875,0.02 -6.41125,-0.35125 -0.0975,-0.1175 -0.2,-0.18625 -0.24875,-0.16125 -0.195,0.06875 -4.0575,2.51 -4.75125,2.9925 -2.53375,1.7775 -4.755,3.64375 -6.9875,5.88 -2.62125,2.62125 -4.80375,5.42375 -6.70375,8.6025 -0.5325,0.89375 -2.0699997,3.8975 -2.1624997,4.22375 l -0.03875,0.1375 0.2825,-0.15125 c 0.3224997,-0.16625 0.7474997,-0.20125 1.0599997,-0.06375 0.2725,0.1075 0.66875,0.58125 0.825,0.98625 0.18,0.44875 0.2,1.71875 0.03375,2.1925 -0.26375,0.75125 -0.7325,1.16125 -1.3175,1.16125 -0.5574997,0 -0.9137497,-0.25875 -1.2162497,-0.87375 -0.17125,-0.33625 -0.21,-0.5225 -0.24875,-1.16625 l -0.04,-0.56625 -0.1025,0.19 c -0.05375,0.1025 -0.3025,0.78625 -0.54625,1.51875 -1.09875,3.28125 -1.7525,6.72875 -1.7825,9.369996 -0.005,0.415 0.015,0.89875 0.03875,1.09375 0.04375,0.2825 0.035,0.36625 -0.0725,0.5325 -0.24,0.38 -0.18125,0.37 -2.6375,0.405 l -2.24125,0.0288 0,3.165 2.05125,0.0138 2.05625,0.02 1.67875,-0.5475 c 0.92375,-0.2925 1.8125,-0.57625 1.9775,-0.615 l 0.29875,-0.0775 0.0575,-4.405 0.3087497,-0.65375 c 0.605,-1.303746 0.625,-1.342496 0.83875,-1.474996 0.20125,-0.1225 0.29875,-0.13125 2.135,-0.16125 l 1.9275,-0.0288 0.215,0.205 c 0.18625,0.17125 0.25,0.3125 0.45,0.98125 l 0.23875,0.771246 1.875,0 -0.01,-0.625 c -0.01875,-1.078746 0.17625,-3.476246 0.42,-5.136246 1.19625,-8.2275 4.4725,-16.33375 9.56625,-23.6425 0.58,-0.83 1.59125,-1.9925 1.865,-2.14375 0.16125,-0.0925 0.58125,-0.1025 4.09125,-0.1225 2.14875,-0.01 4.0525,0 4.22375,0.02 0.3425,0.03875 0.645,0.23875 0.7375,0.4875 0.0975,0.255 0.55625,5.29375 0.85875,9.45875 0.18125,2.4025 0.41625,6.42625 0.51875,8.80375 0.0725,1.72375 0.1025,7.5825 0.0525,9.64875 l -0.03375,1.16125 0.45,0.03 c 0.24875,0.0187 0.5075,0.0725 0.585,0.12125 0.18125,0.1175 0.3225,0.44 0.5525,1.22625 0.1075,0.361246 0.215,0.702496 0.24875,0.756246 0.04875,0.1025 0.5225,0.1075 8.98,0.0937 l 8.925,-0.015 0.3125,-0.68375 c 0.405,-0.878746 0.46875,-0.927496 1.30875,-0.981246 0.34125,-0.02 1.21125,-0.0438 1.93875,-0.0487 1.27875,-0.005 1.3275,-0.005 1.50875,0.12625 0.24875,0.18125 0.26875,0.21 0.64,1.449996 l 0.32125,1.08 0,2.23625 c 0,1.22 0.015,2.23125 0.035,2.23125 0.01375,0 0.1025,-0.0637 0.195,-0.1275 0.195,-0.14625 0.22,-0.14625 2.12375,-0.12625 l 1.485,0.01 0.22875,0.22875 c 0.205,0.205 0.235,0.26375 0.235,0.5225 0,0.18625 -0.04375,0.36125 -0.1225,0.48875 -0.215,0.36125 -0.35625,0.37625 -2.1675,0.36125 -1.5875,-0.02 -1.62625,-0.025 -1.81625,-0.15625 l -0.19625,-0.14125 0,3.78375 c 0,4.21875 0.015,4.0425 -0.41,4.33125 -0.395,0.26375 -0.9325,0.1025 -1.1575,-0.3475 -0.0975,-0.19 -0.1025,-0.63375 -0.1025,-6.655 l 0,-6.445 -0.15625,-0.5425 c -0.0875,-0.2975 -0.18,-0.56625 -0.21,-0.595 -0.0575,-0.0838 -2.085,-0.0487 -2.1675,0.0288 -0.02875,0.03 -0.15625,0.28375 -0.28375,0.57125 l -0.22875,0.5175 0,6.665 c 0,6.34375 -0.005,6.68 -0.1125,6.875 -0.2925,0.5525 -1.1325,0.5475 -1.41625,-0.005 -0.0875,-0.165 -0.0975,-0.605 -0.0875,-4.08625 0.005,-2.35375 -0.015,-3.95 -0.04875,-4.00875 -0.05375,-0.0975 -0.48875,-0.1025 -8.735,-0.0788 l -8.6825,0.03 -0.02875,4.0325 c -0.03,3.78 -0.03875,4.04375 -0.14125,4.2 -0.1175,0.185 -0.425,0.33625 -0.67,0.33625 -0.24375,0 -0.56625,-0.18 -0.6875,-0.38 -0.1075,-0.18125 -0.1125,-0.435 -0.1125,-7.085 l -0.005,-6.89 -0.17625,-0.60125 c -0.0975,-0.32625 -0.195,-0.605 -0.21,-0.625 -0.04375,-0.0388 -2.07,-0.004 -2.13875,0.04 -0.02875,0.0138 -0.15625,0.25375 -0.2825,0.5275 l -0.23,0.4925 -0.01875,7.065 c -0.015,6.62625 -0.025,7.08125 -0.1225,7.26625 -0.13625,0.24375 -0.38625,0.37125 -0.7475,0.37125 -0.21,0 -0.34125,-0.0387 -0.45875,-0.1325 -0.34625,-0.2675 -0.3325,0.035 -0.3325,-7.03625 l 0,-6.50875 -9.775,0.015 -9.78,0.02 -0.03,6.62625 c -0.02875,6.26375 -0.03875,6.645 -0.13625,6.80125 -0.34625,0.5275 -1.10375,0.5025 -1.40125,-0.0388 -0.0975,-0.18125 -0.1075,-0.65 -0.13625,-7.33375 l -0.03,-7.13375 -0.14625,-0.465 c -0.1125,-0.35125 -0.17625,-0.4725 -0.26875,-0.4925 -0.06875,-0.02 -0.56125,-0.005 -1.10375,0.015 l -0.97625,0.0438 -0.5175,1.1425 0,5.78625 c -0.005,5.63875 -0.005,5.8 -0.1225,5.98625 -0.2975,0.4875 -1.07375,0.4925 -1.3712497,0.005 -0.1175,-0.19125 -0.1225,-0.29375 -0.1225,-3.165 0,-1.63 -0.02375,-2.9825 -0.04875,-2.9925 -0.02875,-0.025 -0.2925,0.0387 -0.58625,0.13625 -0.2875,0.0937 -1.07875,0.3525 -1.7525,0.57125 l -1.22625,0.39625 -2.1525,-0.005 c -1.1825,0 -2.1975,0.005 -2.25125,0.0288 -0.0925,0.035 -0.1025,0.18625 -0.1025,1.5875 0,1.21125 -0.02,1.59125 -0.0875,1.7525 -0.18625,0.44 -0.85500005,0.60125 -1.22625005,0.29375 -0.0975,-0.0887 -0.21,-0.21 -0.24375,-0.27375 -0.04375,-0.0787 -0.06375,-1.64125 -0.0587499953,-4.7125 0.004999995,-5.01375 -0.0100000047,-4.80875 0.34124999529,-5.04875 0.15625,-0.1025 0.3375,-0.1175 2.34875005,-0.13625 l 2.17875,-0.035 0.04375,-0.8975 c 0.14125,-2.973746 0.9125,-6.689996 2.075,-9.971246 1.5525,-4.375 3.9787497,-8.69625 7.0012497,-12.46125 2.04125,-2.54375 4.87875,-5.37 7.515,-7.495 1.90875,-1.5325 3.37375,-2.5675 5.67375,-3.98875 0.9325,-0.58625 1.84625,-1.1625 2.02625,-1.28 l 0.3325,-0.21875 0.03375,-4.835 c 0.035,-5.2725 0.01,-4.83875 0.405,-6.40125 0.80625,-3.16375 2.28125,-5.7175 4.0875,-7.075 0.405,-0.2975 0.5225,-0.43 0.68375,-0.7425 0.16625,-0.33125 0.22875,-0.385 0.5225,-0.53125 l 0.3275,-0.15625 0,-0.37625 c 0,-0.37625 -0.005,-0.38625 -0.17125,-0.42 -0.0925,-0.025 -0.25875,-0.13625 -0.37125,-0.24875 l -0.205,-0.21 0,-1.46 0.78125,-1.22125 c 0.85,-1.3275 1.00625,-1.48875 1.42625,-1.48875 0.44375,0 0.55625,0.1175 1.3125,1.445 l 0.69875,1.22625 0.005,0.67875 c 0.005,0.795 -0.06375,0.98625 -0.43,1.19625 -0.26375,0.15125 -0.3325,0.32625 -0.26375,0.66875 0.03375,0.195 0.07875,0.23875 0.36625,0.37125 0.26375,0.12625 0.35125,0.205 0.44,0.405 0.0625,0.13125 0.1125,0.3175 0.1125,0.41 0,0.1275 0.0625,0.2 0.31625,0.36625 1.97375,1.26 3.585,3.55 4.3025,6.11375 0.4925,1.7675 0.47875,1.5475 0.5175,7.3875 l 0.02875,5.2 1.255,0.835 c 5.46375,3.6475 10.49375,8.2075 14.3025,12.96375 3.24625,4.0425 5.53125,8.13 6.9625,12.4175 0.9275,2.7975 1.39125,5.2775 1.5525,8.338746 l 0.03875,0.7575 0.205,0.0388 c 0.1125,0.02 1.09,0.0337 2.16875,0.025 1.9575,-0.01 1.9625,-0.01 2.1525,0.12625 0.38125,0.27375 0.3625,-0.23375 0.3625,8.545 0,8.8775 0.02375,8.29625 -0.38625,8.54 -0.23,0.14125 -0.66375,0.14625 -0.87875,0.02 l 0,-0.005 z m -12.745,-13.13 c 0.045,-0.41 0.035,-2.28 -0.01375,-2.54875 l -0.03,-0.17125 -17.3925,0.03 -0.01375,1.465 c -0.01,0.8 -0.005,1.49375 0.0087,1.5425 0.025,0.0537 1.75375,0.0687 8.71625,0.0687 l 8.68125,0 0.04375,-0.38625 z m -23.27125,-5.312496 c 0.21,-0.45875 0.45,-0.9125 0.5325,-1.00125 0.17625,-0.185 0.26875,-0.21 1.03,-0.24875 0.3075,-0.025 0.57125,-0.0438 0.57625,-0.0487 0.07375,-0.0825 0.14625,-2.7925 0.14625,-5.42 0,-4.61875 -0.21875,-9.24375 -0.75125,-16.01125 -0.28375,-3.6025 -0.5375,-6.3525 -0.59625,-6.445 -0.02375,-0.03875 -1.1275,-0.06375 -3.4025,-0.06375 l -3.365,0 -0.405,0.45 c -0.7425,0.83 -2.4075,3.34 -3.6625,5.5225 -4.10125,7.1525 -6.67,15.64375 -6.85,22.65125 l -0.03875,1.416246 8.085,0.0187 c 4.44875,0.015 8.14,0.02 8.20375,0.02 0.0875,-0.005 0.2,-0.195 0.4975,-0.839996 z m -9.60375,-7.44125 c -0.9375,-0.18625 -1.8075,-1.04 -2.115,-2.08 -0.11625,-0.41 -0.12125,-1.24 -0.005,-1.67 0.225,-0.855 0.7725,-1.53875 1.51375,-1.905 0.445,-0.21875 0.46375,-0.22375 1.1425,-0.22375 0.665,0 0.70875,0.005 1.10875,0.205 1.31875,0.64375 1.9725,2.33875 1.465,3.79375 -0.46875,1.3425 -1.7775,2.13875 -3.11,1.88 z m 1.10375,-1.81125 c 0.85875,-0.66 0.58,-2.25625 -0.435,-2.45625 -0.26375,-0.05375 -0.67875,0.1075 -0.90375,0.36125 -0.22875,0.26375 -0.385,0.79625 -0.34125,1.1475 0.06375,0.43875 0.34625,0.85875 0.7275,1.08875 0.205,0.1125 0.7125,0.0387 0.9525,-0.14125 z m 15.0925,-29.52625 c 0.005,-2.58375 0.005,-4.795 -0.005,-4.9075 -0.01,-0.1125 -0.04375,-0.23 -0.08375,-0.25375 -0.03875,-0.025 -2.6025,-0.04875 -5.6925,-0.04875 -5.15625,0 -5.63,0.0088 -5.70375,0.0975 -0.0675,0.0825 -0.0875,0.88375 -0.1025,4.52625 -0.01,2.43125 0,4.61875 0.02,4.85875 l 0.03875,0.42875 11.51875,0 z m -9.24875,2.5575 c -0.385,-0.23375 -0.385,-0.23375 -0.36625,-2.7675 0.02,-2.2075 0.025,-2.29 0.15625,-2.6175 0.30375,-0.7575 0.77625,-1.1475 1.3775,-1.1475 0.78125,0 1.41125,0.58125 1.70375,1.5675 0.07875,0.27375 0.0975,0.66875 0.0975,2.34875 0,2.1825 -0.0087,2.26 -0.32625,2.55375 -0.16125,0.14625 -0.18125,0.15125 -1.30875,0.165 -1.055,0.015 -1.1575,0.005 -1.33375,-0.1025 z m 5.1325,0.025 c -0.1175,-0.06375 -0.235,-0.195 -0.3175,-0.35625 -0.1225,-0.25375 -0.1225,-0.3225 -0.1025,-2.45625 0.02375,-2.1 0.02875,-2.21625 0.15625,-2.55375 0.2925,-0.79625 0.77625,-1.19125 1.44,-1.19125 0.68375,0 1.27,0.4975 1.5825,1.3575 l 0.15125,0.4 0,2.11875 c 0,2.35375 -0.01,2.4225 -0.37125,2.6425 -0.195,0.12125 -0.2875,0.13125 -1.27875,0.12625 -0.85,0 -1.10375,-0.01875 -1.26,-0.0875 z m 3.78375,-9.65875 c -0.05875,-0.36125 -0.415,-1.39625 -0.66375,-1.9425 -0.7575,-1.63625 -1.9775,-3.0475 -3.32,-3.83375 -0.59125,-0.34125 -0.7475,-0.5025 -0.80625,-0.815 -0.03375,-0.18125 -0.0825,-0.23 -0.3175,-0.3325 -0.33125,-0.15125 -0.3075,-0.15125 -0.77125,0.025 -0.34125,0.13125 -0.395,0.175 -0.5375,0.43875 -0.11625,0.215 -0.26875,0.36625 -0.57625,0.57625 -1.3325,0.91375 -2.30875,2.2175 -3.13375,4.195 -0.26375,0.635 -0.60125,1.665 -0.60125,1.83625 0,0.1025 0.24875,0.1075 5.38625,0.1075 l 5.38,0 z m -5.02375,-10.54625 c 0.04875,-0.08375 -0.3175,-0.7275 -0.41125,-0.7275 -0.0675,0 -0.4,0.5075 -0.405,0.63 -0.005,0.02875 0.0975,0.1125 0.225,0.185 0.21,0.1225 0.24875,0.1225 0.395,0.04875 0.08875,-0.04875 0.17625,-0.1125 0.19625,-0.13625 z M 93.54575,117.41408 c -0.1075,-0.0637 -0.23875,-0.20125 -0.2925,-0.30875 -0.0937,-0.175 -0.0937,-0.77125 -0.03,-8.6025 l 0.0738,-8.40375 -1.62625,-3.988746 c -0.88875,-2.1925 -1.792499,-4.405 -2.002499,-4.9125 -0.205,-0.5125 -0.73625,-1.81125 -1.17625,-2.89625 -0.44,-1.08375 -0.825,-1.9775 -0.86,-1.98625 -0.03375,-0.01 -0.14625,0.22875 -0.25375,0.53125 -0.1075,0.3075 -0.5275,1.5 -0.9275,2.6475 -0.405,1.1475 -1.41125,4.01375 -2.23625,6.36125 l -1.49375,4.267496 0.03875,6.03625 c 0.03375,5.84875 0.03375,6.045 -0.0775,6.235 -0.1525,0.24875 -0.5575,0.44375 -0.83125,0.395 -0.24375,-0.0438 -0.55625,-0.2875 -0.63375,-0.4975 -0.07375,-0.19 -0.17625,-12.23625 -0.1125,-12.514996 0.02375,-0.1075 0.395,-1.18125 0.825,-2.3975 1.675,-4.76 2.78375,-7.915 2.9975,-8.54 0.1225,-0.35625 0.38125,-1.08375 0.5675,-1.61625 0.185,-0.5225 0.46875,-1.3275 0.62875,-1.79125 0.5475,-1.5775 0.71375,-2.0175 0.82125,-2.13375 0.385,-0.43 1.07375,-0.3575 1.3325,0.14625 0.1075,0.21 0.605,1.425 3.129999,7.63125 0.645,1.5925 1.3575,3.345 1.5825,3.8825 0.5075,1.24 1.88375,4.6575 1.92875,4.785 0.0387,0.12125 -0.0738,16.572496 -0.1175,17.011246 -0.025,0.27875 -0.0687,0.36125 -0.25875,0.5525 -0.2,0.2 -0.25875,0.22375 -0.5175,0.22375 -0.18125,0 -0.36125,-0.0438 -0.47875,-0.11625 z m -6.962499,-1.24125 c -0.5575,-0.0138 -0.645,-0.0288 -0.69875,-0.13125 -0.04375,-0.0737 -0.05875,-2.53375 -0.04875,-7.35875 l 0.015,-7.24625 0.825,-2.597496 c 0.9075,-2.88125 0.9175,-2.905 1.00125,-2.8275 0.03375,0.035 0.44375,1.1875 0.9075,2.56375 l 0.85,2.504996 0.015,7.46125 c 0.0088,4.995 -0.005,7.485 -0.045,7.56375 -0.0575,0.1075 -0.13125,0.11125 -1.1225,0.1025 -0.58125,-0.01 -1.3425,-0.025 -1.69875,-0.035 z m 87.441249,-1.28375 c -1.1525,-0.415 -2.08,-2.11875 -2.6225,-4.81875 -0.38125,-1.89 -1.41625,-6.94375 -1.79125,-8.71625 -0.1325,-0.645 -0.3625,-1.733746 -0.50875,-2.422496 -1.80625,-8.6125 -3.505,-15.94625 -4.2725,-18.4325 -0.46375,-1.49375 -0.96125,-2.44125 -1.3375,-2.52875 -0.45875,-0.1225 -1.45,0.95625 -1.70375,1.85 -0.62,2.14375 -1.3575,5.05375 -2.47625,9.795 -0.0825,0.3425 -0.2825,1.23125 -0.7275,3.19875 -0.89875,4.00875 -2.465,11.639996 -3.39875,16.567496 -0.2875,1.5375 -0.46375,2.1625 -0.795,2.86625 -0.5225,1.08875 -1.21125,1.64 -2.04625,1.64 -0.5125,0 -0.9275,-0.15125 -1.3675,-0.4925 -0.77125,-0.61125 -1.455,-1.82625 -1.9425,-3.4475 -0.17625,-0.60125 -0.9375,-3.47125 -2.38375,-9.01375 -2.42625,-9.292496 -3.89125,-14.648746 -4.43375,-16.211246 -0.38,-1.10375 -0.88875,-1.89 -1.22,-1.89 -0.38125,0 -0.99125,0.70875 -1.48,1.705 -0.2725,0.56125 -0.5275,1.24 -1.91875,5.1075 -1.05,2.93375 -2.03625,5.64375 -2.84625,7.85625 -2.12,5.761246 -2.3875,6.371246 -3.20875,7.241246 -0.395,0.42 -0.7075,0.63 -1.15625,0.78125 -0.46,0.15625 -0.85,0.15625 -1.33375,0.005 -0.4925,-0.15125 -0.87375,-0.39625 -1.38625,-0.88875 -1.18625,-1.1475 -2.33875,-3.13 -5.825,-10.058746 -1.3775,-2.74375 -1.5925,-3.11 -2.13375,-3.6475 -1.1525,-1.1575 -2.4025,-0.9475 -4.02375,0.68375 -0.86,0.85375 -1.445,1.67 -2.6125,3.6375 -0.1225,0.21 -0.48375,0.64 -0.79125,0.96125 -0.7175,0.72875 -1.1225,0.9575 -1.80125,0.99625 -0.40125,0.03 -0.49375,0.01 -0.82,-0.13125 -0.50375,-0.23 -0.90875,-0.67875 -1.23625,-1.3775 -0.5175,-1.08875 -0.4875,-0.9275 -1.58125,-10.15125 -0.16625,-1.41625 -0.425,-3.58875 -0.57125,-4.83875 -0.1475,-1.25 -0.3175,-2.695 -0.38125,-3.2275 -0.3275,-2.8125 -0.48375,-4.0525 -0.5075,-4.0825 -0.0688,-0.0675 -0.0438,-0.2625 -0.68875,4.98125 -0.98125,7.97375 -0.9525,7.76375 -1.065,7.915 -0.39,0.5275 -1.07875,0.5175 -1.39125,-0.03875 -0.0537,-0.09375 -0.425,-1.665 -0.825,-3.48625 -0.4,-1.82625 -0.88375,-4.02375 -1.07875,-4.8975 -2.115,-9.615 -1.92375,-8.6575 -2.4175,-12.06625 -0.24875,-1.72375 -0.67875,-4.70625 -0.9625,-6.62625 -0.7025,-4.8575 -0.9225,-6.37625 -1.29875,-8.98375 -0.18,-1.25 -0.415,-2.8375 -0.5125,-3.53 -0.1025,-0.68375 -0.26375,-1.8025 -0.36125,-2.47625 -0.0975,-0.67375 -0.36625,-2.52875 -0.595,-4.12125 -0.235,-1.58625 -0.59625,-4.08625 -0.80625,-5.55625 -0.215,-1.46 -0.59125,-4.0475 -0.84,-5.76125 -0.24875,-1.70875 -0.61,-4.20875 -0.805,-5.5525 -0.19625,-1.3475 -0.57125,-3.935 -0.835,-5.76125 -0.26375,-1.82125 -0.60125,-4.16 -0.7525,-5.2 -0.14625,-1.035 -0.282499,-1.94875 -0.302499,-2.03125 -0.03375,-0.1375 -0.03875,-0.14125 -0.0825,-0.03 -0.03,0.07375 -0.1325,0.7675 -0.235,1.55375 -0.0975,0.79 -0.35625,2.8025 -0.57125,4.48125 -0.215,1.675 -0.46875,3.6625 -0.56625,4.42 -0.0975,0.75125 -0.26875,2.09875 -0.38125,2.9825 l -0.425,3.28625 c -0.11625,0.91875 -0.3175,2.49 -0.44875,3.49125 -0.1275,1.01125 -0.34125,2.68625 -0.47375,3.73625 -0.13625,1.04875 -0.2975,2.31875 -0.36125,2.8075 -0.14125,1.09875 -0.44375,3.4425 -0.835,6.47875 -0.16125,1.27 -0.48375,3.77 -0.7125,5.5525 -0.23,1.79125 -0.5275,4.08625 -0.655,5.1075 -0.13125,1.02 -0.33625,2.6025 -0.45375,3.525 -0.1175,0.9175 -0.3075,2.3825 -0.42,3.25125 -0.1075,0.87 -0.48375,3.79 -0.83,6.485 -0.7325,5.7175 -1.01125,7.87625 -1.3475,10.5375 -0.26875,2.12375 -0.3325,2.3675 -0.66875,2.54375 -0.39625,0.205 -0.9525,0.04875 -1.11875,-0.3125 -0.0825,-0.19125 -0.175,-0.61125 -0.99625,-4.55625 -0.34125,-1.66 -0.63875,-3.0275 -0.65375,-3.04125 -0.015,-0.01 -0.03875,-0.015 -0.04875,-0.005 -0.015,0.01375 -0.39125,3.6425 -0.835,8.06125 l -0.80625,8.0275 -0.75125,2.1825 c -0.845,2.45625 -0.86875,2.505 -1.39625,2.55875 -0.24,0.015 -0.3475,0 -0.50875,-0.1075 -0.21875,-0.1375 -0.4,-0.44 -0.4,-0.67375 0,-0.0837 0.3275,-1.09375 0.7225,-2.26125 l 0.7225,-2.11375 0.3225,-3.2275 c 0.17625,-1.7725 0.39125,-3.8825 0.47375,-4.6875 0.0825,-0.80625 0.35125,-3.49125 0.59625,-5.9725 0.81,-8.12875 0.77625,-7.7975 0.88375,-7.96375 0.3175,-0.4825 1.06875,-0.4875 1.38125,-0.0088 0.08375,0.13125 0.56625,2.3475 1.445,6.63 0.1475,0.7225 0.28375,1.3675 0.29875,1.42625 0.0625,0.2 0.12125,0.015 0.195,-0.56125 0.03875,-0.3125 0.23875,-1.91 0.45375,-3.555 0.21,-1.64125 0.5075,-3.95 0.65875,-5.1375 0.69875,-5.45375 0.99625,-7.7825 1.13375,-8.8375 0.15125,-1.1325 0.67875,-5.23875 1.07375,-8.35875 0.1175,-0.91875 0.26375,-2.075 0.3275,-2.56375 0.24875,-1.92375 0.36625,-2.8075 0.54125,-4.185 0.09875,-0.79125 0.59625,-4.6575 1.10375,-8.59875 0.5075,-3.94 1.00625,-7.8125 1.10375,-8.6025 0.1025,-0.78625 0.37125,-2.88125 0.60125,-4.65375 0.385,-3.0025 0.6925,-5.435 1.1325,-8.8725 0.1025,-0.7662499 0.24875,-1.9287499 0.33125,-2.5674999 0.28875,-2.2025 0.36625,-2.89625 0.3475,-2.955 -0.015,-0.02875 -0.1425,-0.12625 -0.28875,-0.205 -0.14625,-0.0775 -0.405,-0.2825 -0.57125,-0.45375 -1.28875,-1.3675 -0.6975,-3.61374998 1.08875,-4.15499998 1.347499,-0.41 2.739999,0.3175 3.178749,1.66999998 0.16625,0.5075 0.1125,1.29875 -0.12625,1.81125 -0.215,0.46375 -0.5175,0.81 -0.92375,1.07375 -0.2,0.1275 -0.2925,0.23 -0.2925,0.3175 0,0.06875 0.22,1.62125 0.48375,3.4375 0.26375,1.8212499 0.64,4.4137499 0.83,5.7612499 0.195,1.34375 0.57125,3.92625 0.835,5.7325 0.26375,1.8075 0.65375,4.5125 0.86875,6.00125 0.215,1.495 0.47375,3.2575 0.56625,3.91125 0.0975,0.65875 0.3375,2.31 0.5375,3.6725 0.195,1.36125 0.69875,4.80375 1.10875,7.64625 0.415,2.84125 0.9075,6.265 1.10375,7.6125 0.195,1.3475 0.46375,3.2025 0.595,4.12125 0.13625,0.9225 0.5125,3.52 0.84,5.76625 1.3275,9.175 1.49375,10.26375 1.72375,11.28375 0.22875,1.01625 0.38125,1.71875 1.70375,7.735 0.34625,1.57625 0.655,2.92 0.68375,2.9825 0.0487,0.1175 0.0538,0.1125 0.0875,-0.02375 0.02,-0.08375 0.1175,-0.81125 0.215,-1.61625 0.18125,-1.485 0.59125,-4.81 1.465,-11.9 0.0825,-0.67375 0.18625,-1.255 0.23875,-1.3575 0.28375,-0.54125 1.13375,-0.54125 1.41625,0.005 0.0637,0.1275 0.1425,0.5225 0.19625,1.01625 0.0487,0.43875 0.14625,1.25 0.21,1.78625 0.0675,0.5475 0.22875,1.905 0.36125,3.01375 0.13125,1.1175 0.33125,2.8125 0.44375,3.76375 0.1175,0.9575 0.37125,3.10125 0.57125,4.77625 0.2,1.67875 0.415,3.505 0.47875,4.0625 0.5275,4.55 1.08875,9.16 1.16625,9.545 0.16125,0.835 0.5225,1.68 0.78125,1.82125 0.26875,0.1525 1.02125,-0.54625 1.53875,-1.425 0.9525,-1.63125 1.7475,-2.73 2.63125,-3.61875 1.33875,-1.3525 2.495,-1.9475 3.77,-1.9475 1.18125,0.005 2.31,0.66375 3.2325,1.875 0.3275,0.43375 0.635,0.98125 1.3575,2.43125 1.63125,3.26125 3.37875,6.60625 4.19875,8.042496 1.1725,2.055 2.075,3.07625 2.715,3.07625 0.205,0 0.27375,-0.045 0.57125,-0.3475 0.415,-0.42 0.7625,-1.04 1.1775,-2.1 0.7125,-1.829996 2.245,-6.004996 4.57,-12.454996 1.50375,-4.175 1.68,-4.64875 1.9675,-5.25375 0.5425,-1.13875 1.3325,-2.06625 2.065,-2.4275 0.36125,-0.18 0.465,-0.195 0.88875,-0.195 0.39625,0 0.5425,0.01875 0.82125,0.15625 0.74625,0.34625 1.28375,1.045 1.81125,2.34875 0.4925,1.225 1.9825,6.61125 4.33125,15.62 2.00625,7.714996 2.65625,10.131246 2.895,10.804996 0.425,1.1775 1.07,2.09 1.48,2.09 0.43875,0 0.86375,-1.06875 1.25875,-3.16875 0.84,-4.4475 1.7775,-9.082496 2.86625,-14.149996 1.33375,-6.21625 3.53625,-15.16625 3.975,-16.1525 0.3275,-0.7525 1.29875,-1.81625 1.9625,-2.1725 0.91375,-0.47875 1.885,-0.3075 2.6125,0.4775 0.5625,0.60625 0.98625,1.5 1.43625,3.00375 1.1175,3.74 3.50125,14.41875 6.3275,28.348746 0.245,1.20125 0.5275,2.45125 0.63,2.77875 0.235,0.7475 0.64,1.5925 0.90375,1.895 0.205,0.23375 0.21,0.23375 0.35625,0.14625 0.205,-0.13625 0.5425,-0.66375 0.855,-1.32375 0.75625,-1.61625 1.50875,-4.39875 2.44125,-9.0625 0.3075,-1.5325 0.5225,-2.665 1.3175,-7.044996 1.055,-5.77625 1.54875,-8.2575 2.09,-10.47375 0.91875,-3.775 1.69,-5.47375 2.89625,-6.3875 0.53625,-0.405 0.9325,-0.53125 1.5575,-0.5075 0.64375,0.025 0.97125,0.17625 1.46,0.67375 0.64375,0.65 1.05,1.475 1.5425,3.145 0.48375,1.62625 0.60125,2.08 2.515,9.79 2.02625,8.153746 2.97375,11.416246 3.77375,13.037496 0.26875,0.54125 0.9775,1.45875 1.3725,1.78625 0.55625,0.45 0.90375,0.23 1.50875,-0.96125 1.225,-2.4025 3.98,-9.643746 6.48875,-17.061246 0.455,-1.3375 0.80125,-1.9475 1.54875,-2.685 0.78125,-0.77625 1.5275,-1.07 2.3575,-0.91875 1.12375,0.205 1.9875,1.09 2.90125,2.98375 1.9525,4.04375 5.0725,9.6775 5.9175,10.70875 0.35625,0.42875 0.89375,0.815 1.3525,0.97125 0.855,0.282496 1.89,-0.02 2.91,-0.855 0.7375,-0.6 2.75375,-2.65125 3.18375,-3.14875 0.61,-0.69875 1.44,-1.30375 1.67,-1.49875 4.41375,-3.83875 5.3175,0.22875 10.9375,0.2825 0.1225,0.01 -0.81,0 0.17125,0.01 0,0.9375 0.01,0.78625 0,1.465 -1.00125,0.0288 -0.005,0 -0.1225,0 -6.48375,0 -6.5775,-4.37 -10.9275,0.25375 -0.77625,0.85 -3.54,3.749996 -4.51125,4.389996 -2.14875,1.42 -4.46375,1.04875 -6.065,-0.967496 -0.16125,-0.195 -0.46875,-0.66375 -0.69375,-1.045 -2.13375,-3.60375 -3.6425,-6.40125 -5.2775,-9.795 -0.45,-0.9375 -0.7575,-1.40125 -1.1775,-1.78625 -0.56625,-0.5175 -0.95125,-0.46875 -1.57625,0.215 -0.48375,0.53125 -0.72875,1.035 -1.255,2.61125 -2.1,6.245 -4.86375,13.516246 -6.21625,16.328746 -0.845,1.7725 -1.645,2.45625 -2.76875,2.3925 -0.63,-0.0488 -1.1225,-0.3075 -1.73375,-0.9225 -1.84,-1.84125 -2.42625,-3.55 -5.7325,-16.836246 -2.09375,-8.38875 -2.40625,-9.4975 -2.9775,-10.38125 -0.215,-0.33125 -0.5125,-0.58125 -0.70375,-0.58125 -0.18,0 -0.64875,0.37125 -0.9275,0.7375 -1.10875,1.47 -1.9975,5.015 -3.935,15.7175 -1.8075,9.986246 -2.70625,13.754996 -3.84875,16.187496 -0.38,0.815 -0.66375,1.24 -1.1075,1.67375 -0.56625,0.5575 -1.23125,0.7575 -1.82625,0.5375 l 0,0.01 z M 17.280751,107.31533 c -0.42,-0.0775 -0.615,-0.35125 -0.615,-0.825 0,-0.33625 0.15125,-0.57125 0.45375,-0.6975 0.3075,-0.1325 17.69125,-0.1175 17.94,0.005 0.54125,0.2775 0.625,1.02 0.15625,1.37125 l -0.195,0.15125 -8.79,0.02 c -4.82875,0.005 -8.8575,0 -8.95,-0.025 z m 39.7025,-6.78625 c -0.27875,-0.1425 -0.435,-0.37125 -0.44,-0.649996 0,-0.12625 0.02,-0.98625 0.045,-1.90375 0.03375,-1.1375 0.02375,-2.03625 -0.025,-2.8075 -0.405,-6.475 -2.6025,-12.725 -6.5425,-18.60375 -1.3725,-2.05125 -3.145,-4.24375 -4.5075,-5.58125 l -0.425,-0.415 -2.9,-0.03375 -2.895,-0.03 -0.205,-0.225 c -0.18125,-0.2 -0.20625,-0.25875 -0.20625,-0.54625 0,-0.2975 0.025,-0.35625 0.20625,-0.56125 l 0.205,-0.215 3.125,-0.025 c 1.71875,-0.0087 3.1825,0 3.25625,0.02 0.28875,0.06875 1.60625,1.41125 2.9,2.94375 4.9225,5.84 8.31625,13.125 9.2925,19.95625 0.3225,2.25625 0.45375,4.86875 0.35125,7.11 -0.05375,1.093746 -0.1175,1.308746 -0.45875,1.532496 -0.24375,0.16625 -0.4975,0.18125 -0.77625,0.035 z m -7.7975,-7.861246 c -1.03125,-0.3425 -1.68,-1.1475 -1.82125,-2.26625 -0.1375,-1.07375 0.385,-2.1725 1.26875,-2.69 1.485,-0.87375 3.34,0.1025 3.6325,1.91875 0.19625,1.20625 -0.44375,2.45625 -1.49875,2.93 -0.4,0.18 -1.20125,0.23375 -1.58125,0.1075 z m 1.07375,-1.71875 c 0.22,-0.17125 0.38625,-0.5575 0.38625,-0.88875 0,-0.81125 -0.7475,-1.29875 -1.275,-0.83 -0.395,0.34625 -0.48875,0.87875 -0.24375,1.39625 0.205,0.43 0.78625,0.595 1.1325,0.3225 z"
     inkscape:connector-curvature="0"
     sodipodi:nodetypes="ccsccccccccccccsccccccscccccccccccsccccccccccccccccccccccccccccccccccccccccccccccccsscccssccccsccsccccccsccccccccsccccccccccscsccccccccccccccccsccccccsccccccccccccccccccccscccccscccccccsccccccccccccsccccccccccscccccccsccsccccccccccccsccccccccccscscscccccccscscccccccsccsccccccccccccsscccsccccccccccccccccccccccccccccccccsccccsccccccccccccccccccccsccccsccccccccccccccccccccccccccccscccccccccccccccccccccccccccccccccsccccccccccccccccccccccccccccsccccccccccccccccccccccccccccccccscccccsccccsccccccccccccccccccccccccccccccccccscccccccccccccsccccccccsccccccccccccccccsccccccccccccccccsccc" /></svg>